<svg width="43" height="43" viewBox="0 0 43 43" fill="none" xmlns="http://www.w3.org/2000/svg">
<path d="M31.0784 38.5789C31.1449 38.8215 31.1069 39.0831 30.9835 39.3018L29.0372 42.6832L27.3947 41.7321L28.2207 40.2958C26.3504 40.8475 24.4279 41.1233 22.4864 41.1233C22.1161 41.1233 21.7506 41.1138 21.3803 41.0948C18.7315 40.9521 16.1634 40.3053 13.7519 39.1687C11.3405 38.0273 9.20431 36.4626 7.40046 34.5127C5.5349 32.4914 4.1108 30.1421 3.1709 27.5359C2.75791 26.3944 2.44936 25.2102 2.24524 24.0213L4.11555 23.6979C4.30068 24.7775 4.5855 25.8475 4.96051 26.8891C6.65044 31.5736 10.0588 35.3259 14.5589 37.4423C18.6983 39.3922 23.3076 39.7441 27.6558 38.4743L25.9612 37.4946L26.9106 35.8491L30.6369 38.0035C30.8553 38.1271 31.0119 38.3364 31.0784 38.5789Z" fill="#2C9B7F"/>
<path d="M42.998 20.8539C42.9648 23.2461 42.5139 25.5955 41.6641 27.8451C40.3065 31.431 37.9947 34.5508 34.9709 36.8717L33.8174 35.3641C36.5564 33.2572 38.6593 30.4227 39.8888 27.1697C41.4648 23.0131 41.498 18.4189 39.9932 14.229C39.6514 13.2826 39.2337 12.3552 38.7495 11.4849C37.8096 9.78707 36.6229 8.2652 35.213 6.94307V8.77883H33.3142V4.47003C33.3142 3.94213 33.7414 3.51886 34.2636 3.51886H38.1609V5.4212H36.3713C37.99 6.90503 39.3476 8.6314 40.4157 10.5575C40.9473 11.5182 41.4078 12.536 41.7876 13.5775C42.623 15.9316 43.0313 18.3761 42.998 20.8539Z" fill="#2C9B7F"/>
<path d="M2.76749 19.1418C2.43995 19.1418 2.1219 18.9706 1.94626 18.6662L0 15.2848L1.64246 14.3337L2.50641 15.8317C3.71689 10.7002 6.84989 6.21066 11.2836 3.32861C12.5985 2.47255 14.0226 1.76393 15.5131 1.22652C16.6761 0.808006 17.8771 0.489364 19.0829 0.284862C22.757 -0.338155 26.5404 0.0660928 30.0199 1.44529L29.3221 3.21447C26.1654 1.96368 22.7333 1.59748 19.4009 2.16342C18.3044 2.3489 17.2173 2.63425 16.1587 3.01948C14.8058 3.50933 13.5147 4.15137 12.3232 4.92658C8.33095 7.52327 5.50175 11.5562 4.38621 16.1647L6.02392 15.2182L6.97332 16.8638L3.24694 19.0182C3.09503 19.099 2.92889 19.1418 2.76749 19.1418Z" fill="#2C9B7F"/>
<path d="M35.3935 13.7344C34.2305 11.5277 32.5216 9.64434 30.4424 8.29368C29.5073 7.68493 28.4962 7.18081 27.4329 6.79558C26.6069 6.49597 25.7524 6.27244 24.8932 6.12501C20.7254 5.42114 16.4531 6.5673 13.1777 9.27338C11.7678 10.4386 10.6048 11.8415 9.71712 13.4348C9.33736 14.1196 9.00982 14.8425 8.73924 15.5844C7.55724 18.8659 7.58572 22.4709 8.81994 25.7334C10.3342 29.7331 13.5052 32.8577 17.5212 34.3082C19.1399 34.8932 20.8156 35.1833 22.4865 35.1833C24.6036 35.1833 26.7113 34.7172 28.6861 33.7851C32.2178 32.1253 34.8904 29.1861 36.2148 25.5099C36.7559 24.007 37.0502 22.4376 37.0835 20.8539C37.1309 18.3999 36.5471 15.9316 35.3935 13.7344ZM10.8184 22.7372C10.8137 22.742 10.8137 22.7467 10.8089 22.7515L9.85478 24.3494C9.04779 21.6481 9.12375 18.747 10.0826 16.079C10.1111 15.9982 10.1443 15.9126 10.1728 15.8317L10.4197 17.4392C10.4197 17.4487 10.4244 17.463 10.4244 17.4725L10.8991 19.5651C10.9086 19.6079 10.9276 19.6507 10.9466 19.6935L11.7963 21.2153L10.8184 22.7372ZM16.4436 9.39704C16.3961 9.39704 16.3487 9.40179 16.3059 9.4113L15.3755 9.43508C17.5022 8.07015 19.9658 7.35202 22.4723 7.35202C23.1985 7.35202 23.9296 7.41384 24.6559 7.5375C24.6986 7.54225 24.7366 7.55176 24.7793 7.56128L25.3727 8.23661L23.6827 8.97852L21.5466 8.89292C21.727 8.71695 21.7887 8.44587 21.6937 8.20807C21.5941 7.95601 21.3425 7.80383 21.0766 7.81809L20.2934 7.86565C20.2032 7.87041 20.1178 7.89419 20.0371 7.93699C19.9991 7.95601 19.9659 7.97979 19.9374 8.00833L18.594 9.25912L17.5591 9.8964L16.7332 9.46837C16.6382 9.42082 16.5385 9.39704 16.4436 9.39704ZM29.7684 24.2401L29.3601 25.0723C29.3221 25.1484 29.2652 25.2103 29.1987 25.2531L26.9819 26.6608C26.6971 26.8415 26.4882 27.1221 26.3933 27.4455L25.9518 28.9246C25.9091 29.072 25.7951 29.1861 25.648 29.2289L24.6891 29.5191C24.5419 29.5619 24.4043 29.6332 24.2809 29.7188C24.2524 29.7378 24.2239 29.7664 24.2002 29.7901L22.6242 31.5831C22.5245 31.6402 22.4011 31.6592 22.2871 31.6307L21.314 31.3833C21.1194 31.3358 20.9817 31.1646 20.977 30.9648L20.8725 28.5108C20.8678 28.4205 20.8915 28.3348 20.939 28.2588L21.4517 27.4027C21.5988 27.1601 21.6653 26.8796 21.651 26.5942L21.4944 24.0023C21.4611 23.4696 21.1384 23.013 20.6542 22.799L18.8551 22.0143C18.8076 21.9905 18.7601 21.962 18.7221 21.9287L17.3218 20.5923C17.2268 20.502 17.1746 20.3688 17.1841 20.2356L17.3313 17.9623C17.3408 17.8149 17.4215 17.6817 17.5496 17.6056L20.7871 15.651C20.8725 15.5987 20.9722 15.5796 21.0719 15.5892H21.0766H21.0814L23.2508 16.8019C23.2887 16.8209 23.3267 16.8399 23.3694 16.8495C23.4881 16.878 23.5925 16.9588 23.6495 17.0635L24.3995 18.3618C24.5847 18.6852 24.8837 18.9135 25.2445 19.0134C25.2872 19.0229 25.3252 19.0324 25.3679 19.0324L27.8838 19.0372C27.955 19.0657 28.0167 19.1132 28.0689 19.1751C28.1022 19.2179 28.1307 19.2702 28.1449 19.3225L28.2161 20.8634L28.3822 22.7848L28.3965 22.937C28.3965 22.9607 28.4012 22.9798 28.406 23.0035C28.4677 23.2699 28.6813 23.4744 28.9519 23.5172L29.4171 23.5933L29.4313 23.598C29.5737 23.6218 29.6924 23.7074 29.7589 23.8358C29.8301 23.9642 29.8301 24.1116 29.7684 24.2401ZM35.6546 20.8349C35.6499 20.9633 35.6451 21.0917 35.6404 21.2201L34.4774 23.4268L34.4109 22.3995C34.4109 22.3663 34.4062 22.3282 34.3967 22.2949L34.0406 20.6969C33.9837 20.4401 33.7843 20.2404 33.528 20.1881L32.8586 20.0406C32.8112 20.0311 32.7637 20.0264 32.7162 20.0264C32.5786 20.0264 32.4409 20.0692 32.3222 20.1548C32.1656 20.2642 32.0659 20.4401 32.0469 20.6256L31.9615 21.3961L30.5801 22.8181L29.5927 22.6564L29.3269 22.6136L29.3174 22.4947L29.1702 20.7968L29.099 19.2321C29.099 19.2036 29.0943 19.1751 29.0895 19.1465C29.0706 19.0562 29.0421 18.9706 29.0041 18.8897L28.9946 18.7803L29.4266 17.8672C29.5168 17.6817 29.512 17.4677 29.4218 17.2822C29.3316 17.0968 29.1608 16.9636 28.9614 16.9208L27.8601 16.683L26.8585 16.3216L25.8758 15.4132L25.3157 14.3574C25.2113 14.1624 25.0166 14.0292 24.7983 14.0055L23.7872 13.8866C23.6448 13.8723 23.4976 13.9008 23.3742 13.9722L21.9074 14.8235L21.4374 14.6998L21.2808 14.657L21.2333 14.4478L21.8029 13.449L22.4485 13.7344C22.6669 13.8342 22.9137 13.8057 23.1131 13.6678C23.3077 13.5251 23.4122 13.3016 23.3884 13.059L23.3647 12.7737L25.0831 12.7309C25.273 12.7261 25.4534 12.6405 25.5815 12.4931C25.7049 12.3457 25.7619 12.1554 25.7334 11.9652L25.6337 11.2661L27.4756 10.5765L28.4012 11.3993C28.6006 11.5752 28.8807 11.618 29.1228 11.5086L30.1814 11.033C30.4282 10.9237 30.5848 10.6716 30.5801 10.4005L30.5706 10.1199C33.8128 12.6643 35.7401 16.6735 35.6546 20.8349Z" fill="#2C9B7F"/>
</svg>
