<svg width="62" height="61" viewBox="0 0 62 61" fill="none" xmlns="http://www.w3.org/2000/svg">
<path d="M44.4152 55.1344C44.5102 55.481 44.4559 55.8548 44.2795 56.1675L41.4981 60.9999L39.1508 59.6406L40.3312 57.588C37.6583 58.3764 34.9108 58.7706 32.1361 58.7706C31.6069 58.7706 31.0846 58.757 30.5554 58.7298C26.7699 58.5259 23.0997 57.6016 19.6534 55.9772C16.2071 54.3459 13.1543 52.1098 10.5763 49.3231C7.91021 46.4345 5.875 43.0769 4.53175 39.3523C3.94154 37.7211 3.50058 36.0287 3.20886 34.3295L5.88178 33.8674C6.14636 35.4102 6.5534 36.9395 7.08934 38.428C9.50447 45.1228 14.3754 50.4854 20.8067 53.5099C26.7224 56.2966 33.3097 56.7996 39.5239 54.9848L37.102 53.5847L38.4588 51.233L43.7843 54.312C44.0964 54.4887 44.3202 54.7877 44.4152 55.1344Z" fill="#2C9B7F"/>
<path d="M61.4499 29.803C61.4025 33.2217 60.758 36.5793 59.5436 39.7942C57.6034 44.9189 54.2995 49.3776 49.9781 52.6944L48.3296 50.5398C52.244 47.5289 55.2493 43.478 57.0064 38.829C59.2587 32.8887 59.3062 26.323 57.1556 20.3351C56.6672 18.9826 56.0702 17.6572 55.3782 16.4134C54.035 13.987 52.339 11.812 50.3241 9.92252V12.5461H47.6105V6.38822C47.6105 5.63378 48.221 5.02887 48.9673 5.02887H54.537V7.74756H51.9794C54.2928 9.86815 56.233 12.3354 57.7594 15.088C58.5192 16.461 59.1773 17.9155 59.72 19.404C60.914 22.7684 61.4974 26.2619 61.4499 29.803Z" fill="#2C9B7F"/>
<path d="M3.95511 27.3562C3.48701 27.3562 3.03247 27.1115 2.78146 26.6765L0 21.844L2.34728 20.4847L3.58198 22.6256C5.31192 15.292 9.78939 8.87584 16.1257 4.75702C18.0049 3.5336 20.0401 2.52089 22.1703 1.75286C23.8324 1.15475 25.5488 0.699365 27.2719 0.407105C32.5228 -0.483267 37.9297 0.0944553 42.9024 2.06551L41.9051 4.5939C37.3937 2.80635 32.4889 2.283 27.7264 3.09182C26.1593 3.35689 24.6058 3.76469 23.0929 4.31523C21.1595 5.01529 19.3142 5.93285 17.6114 7.04072C11.906 10.7517 7.86272 16.5154 6.26847 23.1014L8.60897 21.7489L9.96578 24.1005L4.6403 27.1795C4.42321 27.295 4.18576 27.3562 3.95511 27.3562Z" fill="#2C9B7F"/>
<path d="M50.582 19.6282C48.9199 16.4746 46.4776 13.783 43.5062 11.8528C42.1697 10.9828 40.7247 10.2623 39.2051 9.7118C38.0247 9.2836 36.8035 8.96416 35.5756 8.75346C29.6192 7.74754 23.5136 9.38555 18.8326 13.2529C16.8177 14.9181 15.1556 16.9231 13.887 19.2C13.3443 20.1788 12.8762 21.2119 12.4895 22.2722C10.8003 26.9619 10.841 32.1138 12.6048 36.7764C14.7689 42.4925 19.3007 46.9579 25.04 49.0309C27.3534 49.8669 29.7481 50.2815 32.1361 50.2815C35.1618 50.2815 38.1739 49.6154 40.9961 48.2833C46.0434 45.9112 49.8629 41.7108 51.7556 36.457C52.529 34.3092 52.9496 32.0663 52.9971 29.803C53.0649 26.2958 52.2305 22.7683 50.582 19.6282ZM15.4609 32.4945C15.4541 32.5013 15.4541 32.5081 15.4473 32.5148L14.0837 34.7986C12.9305 30.938 13.039 26.792 14.4094 22.979C14.4501 22.8635 14.4976 22.7411 14.5383 22.6256L14.891 24.9229C14.891 24.9365 14.8978 24.9569 14.8978 24.9705L15.5762 27.961C15.5898 28.0222 15.6169 28.0834 15.6441 28.1445L16.8584 30.3195L15.4609 32.4945ZM23.5 13.4296C23.4322 13.4296 23.3643 13.4364 23.3033 13.45L21.9736 13.484C25.0129 11.5333 28.5338 10.507 32.1158 10.507C33.1537 10.507 34.1985 10.5954 35.2364 10.7721C35.2975 10.7789 35.3518 10.7925 35.4128 10.8061L36.2608 11.7712L33.8457 12.8315L30.7929 12.7092C31.0507 12.4577 31.1389 12.0703 31.0032 11.7304C30.8607 11.3702 30.5012 11.1527 30.1213 11.1731L29.0019 11.2411C28.873 11.2479 28.7509 11.2818 28.6355 11.343C28.5813 11.3702 28.5338 11.4042 28.4931 11.445L26.5732 13.2325L25.0943 14.1433L23.9138 13.5316C23.7782 13.4636 23.6357 13.4296 23.5 13.4296ZM42.5429 34.6422L41.9594 35.8317C41.9052 35.9404 41.8238 36.0288 41.7288 36.0899L38.5606 38.1018C38.1536 38.36 37.8551 38.7611 37.7194 39.2232L37.0885 41.337C37.0274 41.5477 36.8646 41.7108 36.6543 41.772L35.2839 42.1866C35.0736 42.2478 34.8769 42.3497 34.7005 42.4721C34.6598 42.4993 34.6191 42.54 34.5852 42.574L32.3329 45.1364C32.1904 45.218 32.014 45.2451 31.8512 45.2044L30.4605 44.8509C30.1823 44.783 29.9856 44.5383 29.9788 44.2528L29.8295 40.7457C29.8228 40.6166 29.8567 40.4942 29.9245 40.3855L30.6572 39.1621C30.8675 38.8154 30.9625 38.4144 30.9421 38.0066L30.7183 34.3024C30.6708 33.5412 30.2094 32.8887 29.5175 32.5828L26.9463 31.4614C26.8785 31.4274 26.8106 31.3866 26.7564 31.339L24.7551 29.4291C24.6194 29.3 24.5448 29.1097 24.5583 28.9194L24.7686 25.6705C24.7822 25.4598 24.8975 25.2695 25.0807 25.1608L29.7074 22.3673C29.8295 22.2926 29.972 22.2654 30.1145 22.279H30.1213H30.128L33.2284 24.0121C33.2826 24.0393 33.3369 24.0665 33.398 24.0801C33.5676 24.1209 33.7168 24.2364 33.7982 24.386L34.8701 26.2415C35.1347 26.7036 35.5621 27.0299 36.0777 27.1726C36.1387 27.1862 36.193 27.1998 36.254 27.1998L39.8496 27.2066C39.9514 27.2474 40.0395 27.3153 40.1142 27.4037C40.1617 27.4649 40.2024 27.5396 40.2227 27.6144L40.3245 29.8165L40.5619 32.5624L40.5823 32.7799C40.5823 32.8139 40.5891 32.8411 40.5958 32.8751C40.684 33.2557 40.9893 33.548 41.376 33.6091L42.0408 33.7179L42.0612 33.7247C42.2647 33.7587 42.4343 33.881 42.5293 34.0645C42.6311 34.248 42.6311 34.4587 42.5429 34.6422ZM50.9551 29.7758C50.9483 29.9593 50.9415 30.1428 50.9347 30.3263L49.2726 33.48L49.1777 32.0119C49.1777 31.9643 49.1709 31.9099 49.1573 31.8624L48.6485 29.5787C48.5671 29.2116 48.2822 28.9262 47.9158 28.8514L46.9593 28.6407C46.8914 28.6271 46.8236 28.6203 46.7558 28.6203C46.559 28.6203 46.3623 28.6815 46.1927 28.8038C45.9688 28.9602 45.8263 29.2116 45.7992 29.4767L45.6771 30.5778L43.7029 32.61L42.2919 32.3789L41.9119 32.3177L41.8984 32.1478L41.6881 29.7214L41.5863 27.4853C41.5863 27.4445 41.5795 27.4037 41.5727 27.3629C41.5456 27.2338 41.5049 27.1114 41.4506 26.9959L41.4371 26.8396L42.0544 25.5346C42.1833 25.2695 42.1765 24.9637 42.0476 24.6986C41.9187 24.4335 41.6745 24.2432 41.3896 24.1821L39.8157 23.8422L38.3842 23.3257L36.9799 22.0275L36.1794 20.5186C36.0302 20.2399 35.752 20.0496 35.44 20.0156L33.995 19.8457C33.7914 19.8253 33.5811 19.8661 33.4047 19.9681L31.3085 21.1847L30.6368 21.008L30.413 20.9468L30.3451 20.6477L31.1592 19.2204L32.0818 19.6282C32.3939 19.771 32.7467 19.7302 33.0316 19.5331C33.3098 19.3292 33.459 19.0097 33.4251 18.6631L33.3912 18.2553L35.847 18.1941C36.1184 18.1873 36.3762 18.065 36.5593 17.8543C36.7357 17.6436 36.8171 17.3717 36.7764 17.0998L36.6339 16.1007L39.2662 15.1152L40.5891 16.291C40.874 16.5425 41.2742 16.6037 41.6202 16.4474L43.1331 15.7677C43.4858 15.6114 43.7097 15.2511 43.7029 14.8637L43.6894 14.4627C48.3229 18.099 51.0772 23.8286 50.9551 29.7758Z" fill="#2C9B7F"/>
</svg>
