<svg width="46" height="46" viewBox="0 0 46 46" fill="none" xmlns="http://www.w3.org/2000/svg">
<path d="M43.5645 26.981V16.8785C43.5645 15.7892 43.5777 14.6999 43.5645 13.6149C43.5557 12.6969 43.2175 11.8668 42.6333 11.1684C42.4444 10.94 42.2512 10.7116 42.0623 10.4832C41.5132 9.83309 40.9686 9.17862 40.4239 8.52855C39.4927 7.41728 38.5615 6.306 37.6304 5.19473C37.5162 5.05856 37.402 4.9224 37.2878 4.78624C36.9891 4.43045 36.3478 4.45681 36.0447 4.78624C35.6977 5.16398 35.7285 5.65154 36.0447 6.02928C37.011 7.18009 37.973 8.3265 38.9393 9.47731C38.992 9.5388 39.0447 9.60029 39.093 9.66179V14.2738C39.093 14.511 39.1018 14.7394 39.1501 14.9722C39.2775 15.5871 39.6992 16.1406 40.2394 16.4524C40.7138 16.7291 41.2629 16.7775 41.8119 16.7775V27.6266C41.8119 27.7365 41.8119 27.8419 41.8119 27.9517C41.8119 28.0307 41.8031 28.1142 41.7987 28.1933C41.7987 28.2108 41.7987 28.2284 41.7987 28.2372C41.8031 28.2064 41.8119 28.1713 41.8075 28.1669C41.8339 28.1977 41.7987 28.325 41.7987 28.2372C41.7943 28.2635 41.79 28.2811 41.79 28.2811C41.7592 28.4568 41.7153 28.6281 41.6582 28.795C41.6538 28.8082 41.6362 28.8697 41.623 28.9224C41.623 28.918 41.6187 28.9312 41.6011 28.9663C41.5835 29.0015 41.5659 29.0366 41.5528 29.0717C41.4737 29.2255 41.3902 29.3748 41.2892 29.5154C41.2673 29.5461 41.2453 29.5769 41.2233 29.6076C41.2102 29.6252 41.2014 29.6384 41.197 29.6471C41.197 29.6428 41.2014 29.6428 41.2058 29.6384C41.197 29.6471 41.1926 29.6559 41.1926 29.6559C41.1926 29.6559 41.197 29.6515 41.2014 29.6471C41.1575 29.6955 41.1047 29.7482 41.096 29.7613C40.9818 29.8843 40.8544 29.9897 40.7314 30.104C40.7402 30.0952 40.7534 30.0908 40.7621 30.082C40.8588 30.0205 40.6348 30.1918 40.7182 30.1127C40.7226 30.1083 40.727 30.104 40.7314 30.104C40.705 30.1259 40.6743 30.1479 40.6479 30.1654C40.5864 30.2094 40.5206 30.2489 40.4547 30.2884C40.3888 30.328 40.3229 30.3675 40.2526 30.4026C40.2175 30.4202 40.1823 30.4378 40.1516 30.4553C40.1252 30.4685 40.0989 30.4817 40.0725 30.4905C40.055 30.4993 40.0418 30.5037 40.0418 30.5037C40.0462 30.5037 40.0813 30.4861 40.1516 30.4597C40.134 30.5168 39.7738 30.5915 39.708 30.6091C39.6245 30.631 39.5367 30.653 39.4488 30.6662C39.4225 30.6706 39.3917 30.675 39.3654 30.6794C39.5147 30.6706 39.2248 30.7057 39.3302 30.6837C39.3434 30.6837 39.3522 30.6794 39.3654 30.6794C39.361 30.6794 39.361 30.6794 39.3566 30.6794C39.2028 30.6881 39.0535 30.7013 38.8998 30.6969C38.8075 30.6969 38.7197 30.6881 38.6274 30.6794C38.6011 30.6794 38.5835 30.675 38.5791 30.6794C38.5967 30.6837 38.6187 30.6881 38.6362 30.6925C38.6011 30.6881 38.5659 30.6794 38.5791 30.6794C38.544 30.6706 38.5132 30.6618 38.5044 30.6618C38.3507 30.631 38.197 30.5915 38.052 30.5432C38.0345 30.5388 37.9774 30.5212 37.9247 30.5081C37.9334 30.5081 37.9247 30.5037 37.8851 30.4861C37.8324 30.4597 37.7797 30.4378 37.7314 30.4114C37.5864 30.3367 37.4459 30.2533 37.3141 30.1611C37.2922 30.1479 37.2746 30.1347 37.257 30.1171C37.2614 30.1171 37.2614 30.1215 37.2658 30.1259C37.3493 30.205 37.1252 30.0293 37.2219 30.0952C37.235 30.104 37.2438 30.1127 37.257 30.1215C37.1911 30.06 37.1165 30.0029 37.0506 29.9414C37.011 29.9019 36.7036 29.6252 36.7211 29.5856C36.7211 29.5856 36.8485 29.7657 36.7563 29.6296C36.7343 29.5988 36.7124 29.5681 36.6904 29.5373C36.6377 29.4583 36.585 29.3792 36.5367 29.2958C36.4971 29.2299 36.462 29.164 36.4269 29.0937C36.4093 29.0586 36.3961 29.0234 36.3785 28.9883C36.3039 28.8346 36.4005 29.0366 36.4005 29.0366C36.3346 29.019 36.2555 28.6061 36.238 28.5359C36.2204 28.4568 36.2028 28.3821 36.1897 28.3031C36.1809 28.2635 36.1941 28.1098 36.1765 28.2416C36.1765 28.2504 36.1765 28.2548 36.1765 28.2635C36.1765 28.246 36.1765 28.224 36.1765 28.2108C36.1677 28.0966 36.1633 27.9868 36.1633 27.8726C36.1633 27.8243 36.1633 27.7804 36.1633 27.7321V21.4685C36.1633 20.8755 36.2116 20.243 36.0667 19.6676C35.8602 18.8638 35.2848 18.1215 34.5381 17.7438C34.0374 17.489 33.5147 17.3924 32.9569 17.3924H30.2687V7.78624C30.2687 7.347 30.2775 6.90776 30.2687 6.46852C30.2687 6.45534 30.2687 6.43777 30.2687 6.4246V6.41142C30.2687 6.40263 30.2687 6.38946 30.2687 6.38067C30.2336 5.27379 29.4517 4.25476 28.3361 4.04832C28.1033 4.00439 27.8793 4 27.6465 4H8.86463C8.71968 4 8.57473 4 8.42978 4C7.60401 4.00878 6.86609 4.4041 6.3961 5.08053C6.03154 5.60761 5.99201 6.20498 5.99201 6.81113V39.2225C5.3024 39.2182 4.61719 39.2138 3.92758 39.2313H3.87927C3.41807 39.2313 2.97883 39.6354 3.00079 40.1098C3.02275 40.5842 3.38732 40.9883 3.87927 40.9883H28.8851C30.0315 40.9883 31.1823 41.0146 32.3331 40.9883C32.3507 40.9883 32.3639 40.9883 32.3815 40.9883C32.8427 40.9883 33.2819 40.5842 33.2599 40.1098C33.238 39.6354 32.8734 39.2313 32.3815 39.2313H30.2731V19.1493H33.093C33.1326 19.1493 33.1501 19.1493 33.1853 19.1493C33.216 19.1493 33.2468 19.1537 33.2775 19.1537C33.2819 19.1537 33.2863 19.1537 33.2863 19.1537C33.2819 19.1537 33.2819 19.1537 33.2775 19.1537C33.3039 19.1581 33.3214 19.1581 33.3302 19.1581C33.3214 19.1581 33.3083 19.1581 33.2863 19.1537C33.2951 19.1581 33.3039 19.1581 33.3083 19.1625C33.3478 19.1713 33.3873 19.1801 33.4225 19.1889C33.4708 19.202 33.5147 19.2196 33.563 19.2328C33.5938 19.2416 33.6069 19.246 33.6113 19.2416C33.6069 19.2372 33.5982 19.2328 33.5938 19.2328C33.6069 19.2372 33.6157 19.2416 33.6113 19.2416C33.6596 19.2679 33.708 19.2987 33.7255 19.3119C33.7607 19.3294 33.7914 19.3514 33.8222 19.3734C33.8485 19.3865 33.8705 19.4041 33.8924 19.4217C33.9056 19.4305 33.9144 19.4392 33.9188 19.4392C33.9539 19.4744 33.9891 19.5139 33.9979 19.5227C34.0242 19.549 34.0506 19.5754 34.0769 19.6061C34.0989 19.6325 34.1779 19.7687 34.1165 19.6501C34.1077 19.6281 34.0989 19.6193 34.0989 19.6149C34.1077 19.6281 34.1779 19.7555 34.1911 19.7775C34.2131 19.817 34.2394 19.8609 34.2614 19.9048C34.2658 19.9136 34.2702 19.9268 34.2746 19.9356C34.2702 19.9268 34.2702 19.918 34.2658 19.9092C34.2746 19.9268 34.279 19.9444 34.2878 19.9619C34.2965 19.9795 34.3009 19.9927 34.3053 20.0015C34.3009 19.9927 34.2965 19.9795 34.2878 19.9575C34.2834 19.9488 34.279 19.94 34.2746 19.9356C34.2834 19.9619 34.2965 19.9927 34.3053 20.019C34.3185 20.0586 34.3273 20.0937 34.3361 20.1332C34.3449 20.164 34.3492 20.1903 34.358 20.2211C34.358 20.2123 34.358 20.2035 34.358 20.1903C34.358 20.2035 34.358 20.2123 34.358 20.2255C34.358 20.2343 34.3624 20.2387 34.3624 20.2474C34.3712 20.287 34.3668 20.3133 34.3624 20.3089C34.3668 20.3529 34.3712 20.4012 34.3712 20.4451C34.3712 20.6076 34.3712 20.7701 34.3712 20.9283V23.4451C34.3712 24.9122 34.3624 26.3836 34.3712 27.8507C34.3844 29.4275 35.1926 30.8858 36.5147 31.7379C37.8763 32.612 39.6289 32.6515 41.0608 31.9356C42.5103 31.2152 43.4283 29.7174 43.5425 28.1274C43.582 27.7496 43.5645 27.3631 43.5645 26.981ZM41.8075 14.5461V15.4422C41.6845 15.4422 41.5659 15.4422 41.443 15.4422C41.4122 15.4422 41.3815 15.4422 41.3507 15.4422C41.3288 15.4422 41.2497 15.4334 41.2233 15.4334C41.2102 15.429 41.2014 15.429 41.2014 15.429C41.1618 15.4202 41.1267 15.4114 41.0872 15.3982C41.0564 15.3895 40.9905 15.3631 40.9861 15.3631C40.9378 15.3411 40.8939 15.3148 40.85 15.2884C40.828 15.2753 40.8105 15.2621 40.7885 15.2489C40.7402 15.2094 40.6963 15.1654 40.6523 15.1215C40.6304 15.0996 40.5908 15.0425 40.5864 15.0425C40.5601 14.9985 40.5337 14.9546 40.5074 14.9063C40.4986 14.8887 40.4898 14.8712 40.481 14.8536C40.503 14.9195 40.4766 14.8448 40.4678 14.8316C40.4722 14.8404 40.4722 14.8448 40.4766 14.8536C40.4547 14.7877 40.4371 14.7218 40.4195 14.6559C40.4151 14.6384 40.4107 14.6252 40.4107 14.6208C40.4107 14.6164 40.4107 14.6076 40.4107 14.5944C40.4107 14.5549 40.4064 14.511 40.4064 14.4714C40.4064 14.4627 40.4064 14.4539 40.4064 14.4407C40.4064 14.3836 40.4064 14.3309 40.4064 14.2738V11.2299C40.7314 11.6164 41.0564 12.0029 41.3771 12.3895C41.3902 12.407 41.4034 12.4246 41.4166 12.4378C41.4166 12.4422 41.421 12.4422 41.421 12.4466C41.4517 12.4993 41.4869 12.5476 41.522 12.6003C41.5747 12.6881 41.6187 12.7804 41.667 12.8726C41.667 12.8726 41.667 12.877 41.667 12.8814C41.6801 12.9385 41.7065 12.9956 41.7241 13.0527C41.7504 13.1449 41.7724 13.2416 41.79 13.3338C41.7943 13.347 41.7943 13.3558 41.7987 13.3646C41.7987 13.3997 41.7987 13.4392 41.7987 13.4612C41.8031 13.5139 41.8031 13.5622 41.8031 13.6149C41.8075 13.9268 41.8075 14.2387 41.8075 14.5461ZM23.7768 23.8009C23.3683 25.6281 22.1779 27.1611 20.5659 28.0878C19.9466 28.4436 19.2394 28.7599 18.5235 28.9268C18.2951 30.5081 17.97 32.0717 17.5747 33.6179C17.4825 33.9736 17.1047 34.1581 16.7621 34.0791C16.4107 34 16.2175 33.6003 16.3009 33.2665C16.5337 32.3572 16.7402 31.4436 16.9159 30.5212C16.9949 30.0996 17.0696 29.6823 17.1399 29.2562C17.1618 29.1288 17.1794 29.0015 17.197 28.8741C15.8353 28.5183 14.4957 27.8726 13.5952 26.7701C11.8646 24.6442 12.115 21.7189 12.91 19.2504C13.1648 18.4597 13.5118 17.7086 13.7709 16.9224C13.9159 16.4832 14.0345 16.0351 14.1311 15.5827C14.1706 15.3939 14.2058 15.205 14.2365 15.0117C14.2453 14.9634 14.2541 14.9107 14.2585 14.8624C14.2629 14.8448 14.2673 14.8097 14.2673 14.7877V14.7833C14.276 14.7262 14.2804 14.6691 14.2892 14.6076C14.3463 14.0805 14.3639 13.5447 14.3288 13.0176C14.3244 12.9473 14.3156 12.877 14.3112 12.8067C14.3112 12.8375 14.3068 12.8375 14.298 12.7013C14.2936 12.6662 14.2848 12.6354 14.2804 12.6003C14.1706 12.1083 14.5879 11.6603 15.0886 11.7877C15.1062 11.7921 15.1194 11.7965 15.137 11.8009C16.1648 12.06 17.175 12.5256 18.1018 13.022C19.8105 13.94 21.3566 15.2094 22.4415 16.8302C23.7812 18.8375 24.3039 21.4422 23.7768 23.8009Z" fill="#2C9B7F"/>
<path d="M18.6641 25.0527C18.6333 25.8917 18.5718 26.7262 18.4796 27.5608C18.2951 27.6135 18.115 27.6574 17.9305 27.7013C17.8163 27.675 17.7065 27.6486 17.5923 27.6223C17.8032 25.7731 17.8822 23.8975 17.7373 22.0395C17.7153 21.7277 17.6802 21.4158 17.6406 21.1084C17.6406 21.0908 17.6362 21.0776 17.6362 21.0688C17.6362 21.0644 17.6362 21.0557 17.6362 21.0513C17.6362 21.0469 17.6362 21.0469 17.6362 21.0425C17.6362 21.0425 17.6362 21.0425 17.6362 21.0381C17.6362 21.0337 17.6362 21.0381 17.6362 21.0381C17.6319 21.0205 17.6319 21.0073 17.6275 20.9898C17.6187 20.9371 17.6099 20.88 17.6055 20.8272C17.5879 20.7262 17.5748 20.6252 17.5572 20.5286C17.5264 20.3485 17.4913 20.1684 17.443 19.9883C17.2936 19.4393 18.1414 19.2109 18.2907 19.7555C18.3522 19.9839 18.3917 20.2211 18.4313 20.4583C18.6728 21.9737 18.7212 23.5242 18.6641 25.0527Z" fill="#2C9B7F"/>
</svg>
