<svg width="63" height="57" viewBox="0 0 63 57" fill="none" xmlns="http://www.w3.org/2000/svg">
<path d="M62.4912 35.4031V19.8398C62.4912 18.1617 62.5115 16.4836 62.4912 14.8122C62.4777 13.398 61.9567 12.1191 61.0567 11.0432C60.7657 10.6913 60.468 10.3394 60.177 9.98757C59.3312 8.98611 58.4921 7.97788 57.6531 6.97641C56.2185 5.26445 54.784 3.55249 53.3495 1.84053C53.1735 1.63076 52.9976 1.421 52.8217 1.21123C52.3615 0.663131 51.3736 0.703731 50.9067 1.21123C50.3722 1.79316 50.4195 2.54426 50.9067 3.12619C52.3954 4.89905 53.8773 6.66515 55.3659 8.43801C55.4471 8.53274 55.5283 8.62748 55.6028 8.72221V15.8272C55.6028 16.1926 55.6163 16.5445 55.6907 16.9031C55.887 17.8504 56.5366 18.703 57.3689 19.1835C58.0997 19.6097 58.9455 19.6842 59.7913 19.6842V36.3978C59.7913 36.567 59.7913 36.7294 59.7913 36.8985C59.7913 37.0203 59.7778 37.1489 59.771 37.2707C59.771 37.2978 59.771 37.3248 59.771 37.3384C59.7778 37.291 59.7913 37.2369 59.7846 37.2301C59.8252 37.2775 59.771 37.4737 59.771 37.3384C59.7643 37.379 59.7575 37.406 59.7575 37.406C59.7101 37.6767 59.6425 37.9406 59.5545 38.1977C59.5477 38.218 59.5207 38.3128 59.5004 38.394C59.5004 38.3872 59.4936 38.4075 59.4665 38.4616C59.4395 38.5158 59.4124 38.5699 59.3921 38.624C59.2703 38.8609 59.1417 39.0909 58.9861 39.3075C58.9523 39.3548 58.9184 39.4022 58.8846 39.4496C58.8643 39.4766 58.8508 39.4969 58.844 39.5105C58.844 39.5037 58.8508 39.5037 58.8575 39.4969C58.844 39.5105 58.8372 39.524 58.8372 39.524C58.8372 39.524 58.844 39.5172 58.8508 39.5105C58.7831 39.5849 58.7019 39.6661 58.6884 39.6864C58.5124 39.8759 58.3162 40.0383 58.1267 40.2142C58.1403 40.2007 58.1606 40.1939 58.1741 40.1804C58.323 40.0856 57.9779 40.3495 58.1064 40.2277C58.1132 40.221 58.12 40.2142 58.1267 40.2142C58.0861 40.248 58.0388 40.2819 57.9982 40.3089C57.9034 40.3766 57.8019 40.4375 57.7004 40.4984C57.5989 40.5593 57.4974 40.6202 57.3892 40.6743C57.335 40.7014 57.2809 40.7285 57.2335 40.7555C57.1929 40.7758 57.1523 40.7961 57.1117 40.8097C57.0847 40.8232 57.0644 40.83 57.0644 40.83C57.0711 40.83 57.1253 40.8029 57.2335 40.7623C57.2065 40.8503 56.6516 40.9653 56.5501 40.9924C56.4215 41.0262 56.2862 41.06 56.1509 41.0803C56.1103 41.0871 56.0629 41.0939 56.0223 41.1006C56.2524 41.0871 55.8058 41.1412 55.9682 41.1074C55.9885 41.1074 56.002 41.1006 56.0223 41.1006C56.0155 41.1006 56.0155 41.1006 56.0088 41.1006C55.7719 41.1142 55.5419 41.1345 55.305 41.1277C55.1629 41.1277 55.0276 41.1142 54.8855 41.1006C54.8449 41.1006 54.8178 41.0939 54.8111 41.1006C54.8381 41.1074 54.872 41.1142 54.899 41.1209C54.8449 41.1142 54.7908 41.1006 54.8111 41.1006C54.7569 41.0871 54.7096 41.0736 54.696 41.0736C54.4592 41.0262 54.2224 40.9653 53.9991 40.8909C53.972 40.8841 53.884 40.857 53.8028 40.8367C53.8164 40.8367 53.8028 40.83 53.7419 40.8029C53.6607 40.7623 53.5795 40.7285 53.5051 40.6879C53.2818 40.5728 53.0653 40.4443 52.8623 40.3022C52.8285 40.2819 52.8014 40.2616 52.7743 40.2345C52.7811 40.2345 52.7811 40.2413 52.7878 40.248C52.9164 40.3698 52.5713 40.0992 52.7202 40.2007C52.7405 40.2142 52.754 40.2277 52.7743 40.2413C52.6728 40.1465 52.5578 40.0586 52.4563 39.9638C52.3954 39.9029 51.9217 39.4766 51.9488 39.4157C51.9488 39.4157 52.145 39.6932 52.0029 39.4834C51.9691 39.436 51.9353 39.3887 51.9014 39.3413C51.8202 39.2195 51.739 39.0977 51.6646 38.9691C51.6037 38.8676 51.5496 38.7661 51.4954 38.6579C51.4684 38.6037 51.4481 38.5496 51.421 38.4955C51.306 38.2586 51.4548 38.5699 51.4548 38.5699C51.3533 38.5428 51.2315 37.9068 51.2045 37.7985C51.1774 37.6767 51.1503 37.5617 51.13 37.4399C51.1165 37.379 51.1368 37.1421 51.1097 37.3451C51.1097 37.3587 51.1097 37.3654 51.1097 37.379C51.1097 37.3519 51.1097 37.3181 51.1097 37.2978C51.0962 37.1218 51.0894 36.9527 51.0894 36.7767C51.0894 36.7023 51.0894 36.6346 51.0894 36.5602V26.911C51.0894 25.9975 51.1639 25.0231 50.9406 24.1366C50.6225 22.8983 49.7361 21.7548 48.5858 21.1728C47.8144 20.7804 47.0091 20.6315 46.1498 20.6315H42.0086V5.83285C42.0086 5.15619 42.0221 4.47952 42.0086 3.80286C42.0086 3.78256 42.0086 3.75549 42.0086 3.73519V3.71489C42.0086 3.70136 42.0086 3.68106 42.0086 3.66752C41.9544 1.96233 40.75 0.392466 39.0313 0.074433C38.6726 0.00676655 38.3275 0 37.9689 0H9.03469C8.81139 0 8.5881 0 8.3648 0C7.09267 0.0135333 5.95587 0.622532 5.23184 1.6646C4.67021 2.47659 4.60931 3.39686 4.60931 4.33066V54.2618C3.54694 54.255 2.49134 54.2482 1.42898 54.2753H1.35455C0.644049 54.2753 -0.0326156 54.8978 0.00121762 55.6286C0.0350509 56.3594 0.596682 56.982 1.35455 56.982H39.8771C41.6432 56.982 43.416 57.0226 45.1889 56.982C45.216 56.982 45.2363 56.982 45.2633 56.982C45.9738 56.982 46.6505 56.3594 46.6167 55.6286C46.5828 54.8978 46.0212 54.2753 45.2633 54.2753H42.0153V23.3382H46.3595C46.4204 23.3382 46.4475 23.3382 46.5016 23.3382C46.549 23.3382 46.5964 23.3449 46.6437 23.3449C46.6505 23.3449 46.6573 23.3449 46.6573 23.3449C46.6505 23.3449 46.6505 23.3449 46.6437 23.3449C46.6843 23.3517 46.7114 23.3517 46.7249 23.3517C46.7114 23.3517 46.6911 23.3517 46.6573 23.3449C46.6708 23.3517 46.6843 23.3517 46.6911 23.3585C46.752 23.372 46.8129 23.3855 46.867 23.3991C46.9415 23.4194 47.0091 23.4464 47.0836 23.4667C47.1309 23.4803 47.1512 23.487 47.158 23.4803C47.1512 23.4735 47.1377 23.4667 47.1309 23.4667C47.1512 23.4735 47.1648 23.4803 47.158 23.4803C47.2324 23.5209 47.3069 23.5682 47.3339 23.5885C47.3881 23.6156 47.4354 23.6494 47.4828 23.6833C47.5234 23.7036 47.5572 23.7306 47.5911 23.7577C47.6114 23.7712 47.6249 23.7848 47.6317 23.7848C47.6858 23.8389 47.7399 23.8998 47.7535 23.9133C47.7941 23.9539 47.8347 23.9945 47.8753 24.0419C47.9091 24.0825 48.0309 24.2923 47.9362 24.1096C47.9226 24.0757 47.9091 24.0622 47.9091 24.0554C47.9226 24.0757 48.0309 24.272 48.0512 24.3058C48.085 24.3667 48.1256 24.4344 48.1595 24.502C48.1662 24.5156 48.173 24.5359 48.1798 24.5494C48.173 24.5359 48.173 24.5223 48.1662 24.5088C48.1798 24.5359 48.1865 24.5629 48.2001 24.59C48.2136 24.6171 48.2204 24.6374 48.2271 24.6509C48.2204 24.6374 48.2136 24.6171 48.2001 24.5832C48.1933 24.5697 48.1865 24.5562 48.1798 24.5494C48.1933 24.59 48.2136 24.6374 48.2271 24.678C48.2474 24.7389 48.261 24.793 48.2745 24.8539C48.288 24.9013 48.2948 24.9419 48.3083 24.9892C48.3083 24.9757 48.3083 24.9622 48.3083 24.9419C48.3083 24.9622 48.3083 24.9757 48.3083 24.996C48.3083 25.0095 48.3151 25.0163 48.3151 25.0298C48.3286 25.0907 48.3219 25.1313 48.3151 25.1246C48.3219 25.1922 48.3286 25.2667 48.3286 25.3343C48.3286 25.5847 48.3286 25.8351 48.3286 26.0787V29.956C48.3286 32.216 48.3151 34.4828 48.3286 36.7429C48.3489 39.1721 49.594 41.4187 51.6308 42.7314C53.7284 44.078 56.4283 44.1389 58.6342 43.0359C60.8672 41.9262 62.2815 39.6187 62.4574 37.1692C62.5183 36.5873 62.4912 35.9918 62.4912 35.4031ZM59.7846 16.2467V17.6271C59.5951 17.6271 59.4124 17.6271 59.2229 17.6271C59.1756 17.6271 59.1282 17.6271 59.0808 17.6271C59.047 17.6271 58.9252 17.6136 58.8846 17.6136C58.8643 17.6068 58.8508 17.6068 58.8508 17.6068C58.7899 17.5933 58.7357 17.5798 58.6748 17.5595C58.6275 17.5459 58.526 17.5053 58.5192 17.5053C58.4448 17.4715 58.3771 17.4309 58.3094 17.3903C58.2756 17.37 58.2485 17.3497 58.2147 17.3294C58.1403 17.2685 58.0726 17.2008 58.0049 17.1332C57.9711 17.0993 57.9102 17.0114 57.9034 17.0114C57.8628 16.9437 57.8222 16.876 57.7816 16.8016C57.7681 16.7745 57.7546 16.7475 57.741 16.7204C57.7749 16.8219 57.7343 16.7069 57.7207 16.6866C57.7275 16.7001 57.7275 16.7069 57.7343 16.7204C57.7004 16.6189 57.6734 16.5174 57.6463 16.4159C57.6395 16.3888 57.6328 16.3685 57.6328 16.3618C57.6328 16.355 57.6328 16.3415 57.6328 16.3212C57.6328 16.2603 57.626 16.1926 57.626 16.1317C57.626 16.1182 57.626 16.1046 57.626 16.0843C57.626 15.9964 57.626 15.9152 57.626 15.8272V11.1379C58.1267 11.7334 58.6275 12.3288 59.1214 12.9243C59.1417 12.9514 59.162 12.9784 59.1823 12.9987C59.1823 13.0055 59.1891 13.0055 59.1891 13.0123C59.2365 13.0935 59.2906 13.1679 59.3447 13.2491C59.4259 13.3844 59.4936 13.5265 59.568 13.6686C59.568 13.6686 59.568 13.6754 59.568 13.6822C59.5883 13.7701 59.6289 13.8581 59.656 13.9461C59.6966 14.0882 59.7304 14.237 59.7575 14.3791C59.7643 14.3994 59.7643 14.413 59.771 14.4265C59.771 14.4806 59.771 14.5415 59.771 14.5754C59.7778 14.6566 59.7778 14.731 59.7778 14.8122C59.7846 15.2926 59.7846 15.7731 59.7846 16.2467ZM32.0075 30.5041C31.3782 33.319 29.5444 35.6805 27.061 37.1083C26.107 37.6564 25.0175 38.1436 23.9146 38.4007C23.5627 40.8367 23.062 43.2457 22.453 45.6275C22.3109 46.1756 21.7289 46.4598 21.2011 46.338C20.6598 46.2162 20.3621 45.6004 20.4906 45.0862C20.8493 43.6855 21.1673 42.278 21.438 40.857C21.5598 40.2074 21.6748 39.5646 21.7831 38.9082C21.8169 38.712 21.844 38.5158 21.871 38.3195C19.7734 37.7714 17.7095 36.7767 16.3224 35.0783C13.6563 31.8033 14.042 27.2967 15.2668 23.4938C15.6592 22.2758 16.1938 21.1187 16.593 19.9075C16.8163 19.2308 16.999 18.5406 17.1479 17.8437C17.2088 17.5527 17.2629 17.2617 17.3103 16.964C17.3238 16.8896 17.3374 16.8084 17.3441 16.7339C17.3509 16.7069 17.3577 16.6527 17.3577 16.6189V16.6121C17.3712 16.5242 17.378 16.4362 17.3915 16.3415C17.4795 15.5295 17.5065 14.7039 17.4524 13.8919C17.4456 13.7837 17.4321 13.6754 17.4253 13.5671C17.4253 13.6145 17.4186 13.6145 17.405 13.4047C17.3983 13.3506 17.3847 13.3032 17.378 13.2491C17.2088 12.4912 17.8516 11.801 18.623 11.9973C18.6501 12.004 18.6704 12.0108 18.6975 12.0176C20.2809 12.4168 21.8372 13.1341 23.265 13.8987C25.8972 15.3129 28.279 17.2685 29.9504 19.7654C32.0142 22.8577 32.8195 26.8704 32.0075 30.5041Z" fill="#2C9B7F"/>
<path d="M24.1311 32.4325C24.0837 33.725 23.989 35.0106 23.8469 36.2963C23.5627 36.3775 23.2853 36.4452 23.0011 36.5128C22.8251 36.4722 22.656 36.4316 22.48 36.391C22.8048 33.5423 22.9266 30.6529 22.7033 27.7906C22.6695 27.3102 22.6154 26.8297 22.5545 26.3561C22.5545 26.329 22.5477 26.3087 22.5477 26.2952C22.5477 26.2884 22.5477 26.2749 22.5477 26.2681C22.5477 26.2614 22.5477 26.2613 22.5477 26.2546C22.5477 26.2546 22.5477 26.2546 22.5477 26.2478C22.5477 26.2411 22.5477 26.2478 22.5477 26.2478C22.5409 26.2208 22.5409 26.2005 22.5342 26.1734C22.5206 26.0922 22.5071 26.0042 22.5003 25.923C22.4733 25.7674 22.453 25.6118 22.4259 25.4629C22.3785 25.1855 22.3244 24.908 22.25 24.6306C22.0199 23.7848 23.3259 23.4329 23.5559 24.272C23.6507 24.6238 23.7116 24.9892 23.7725 25.3546C24.1446 27.6891 24.2191 30.0777 24.1311 32.4325Z" fill="#2C9B7F"/>
</svg>
