<svg width="23" height="23" viewBox="0 0 23 23" fill="none" xmlns="http://www.w3.org/2000/svg">
<path d="M22.6653 0.33503C22.4468 0.116491 22.1542 -0.00396976 21.8404 9.98614e-05C21.3101 0.00783215 8.79338 0.245904 3.41405 5.62514C1.50455 7.53461 0.275502 10.2206 0.0414942 12.9944C-0.208385 15.9575 0.676367 18.6113 2.53215 20.4675C4.182 22.1177 6.46266 23 9.03064 23C9.35133 23 9.6765 22.9862 10.0053 22.9585C12.7792 22.7245 15.4656 21.4955 17.3747 19.586C22.7541 14.2068 22.9921 1.69022 22.9999 1.15994C23.0044 0.851058 22.8835 0.553569 22.6653 0.33503ZM20.0034 7.83942C19.9069 8.37173 19.8019 8.88776 19.69 9.38873H14.4201L20.5988 3.21022C20.5023 4.42297 20.3261 6.05977 20.0034 7.83942ZM17.5078 15.5603H8.24804L13.2761 10.5323H19.4137C18.9009 12.5012 18.2603 14.1901 17.5078 15.5603ZM7.4398 14.7517V5.55229C7.4398 5.53276 7.43858 5.51322 7.43695 5.4941C8.80762 4.74081 10.4978 4.09943 12.4679 3.58666V9.72366L7.4398 14.7517ZM19.7897 2.40199L13.6115 8.58009V3.31033C14.1019 3.20045 14.6065 3.0979 15.127 3.00308C16.9157 2.6771 18.5676 2.49926 19.7897 2.40199ZM2.32093 13.1869C2.51017 10.9429 3.49829 8.77625 5.03176 7.24281C5.39722 6.87736 5.81965 6.52859 6.29621 6.19733V15.8952L3.7673 18.4241C2.66034 17.0775 2.14756 15.2425 2.32093 13.1869ZM9.81324 20.6791C7.75723 20.8525 5.92221 20.3397 4.57554 19.2327L7.10445 16.7039H16.8034C16.4721 17.1804 16.1233 17.6029 15.7579 17.9683C14.2244 19.5022 12.0577 20.4899 9.81324 20.6791Z" fill="#37C3A0"/>
<rect x="12" width="11" height="23" fill="white" fill-opacity="0.8"/>
</svg>
