<svg width="29" height="32" viewBox="0 0 29 32" fill="none" xmlns="http://www.w3.org/2000/svg">
<path d="M28.8833 0C19.0978 5.81219 12.3962 0.0605433 4.56783 5.63056C-1.30345 9.80807 -1.42206 16.2257 3.67825 19.374C3.67825 19.374 5.10159 15.1359 8.48203 12.472C13.4044 8.59719 19.0978 9.80807 23.605 7.14415C23.9016 11.0189 14.5312 11.6849 11.2101 13.8039C5.99118 17.1944 4.33061 21.7957 5.27951 30.6351C5.57604 33.2385 8.89717 31.5432 8.48203 30.2718C7.53313 27.3052 7.53313 24.1569 8.60064 22.7644C12.3962 23.6726 15.658 23.9753 20.3432 21.3719C26.0366 18.1631 29.7135 8.17339 28.8833 0Z" fill="#37C3A0"/>
</svg>
