<svg width="50" height="50" viewBox="0 0 50 50" fill="none" xmlns="http://www.w3.org/2000/svg">
<path d="M26.8751 19.6555C26.2071 19.6555 25.5801 19.9155 25.1076 20.388L22.4561 23.0395L25.9911 26.5745L28.6436 23.923C29.1151 23.452 29.3751 22.823 29.3751 22.1555C29.3751 21.4875 29.1151 20.86 28.6436 20.388C28.1716 19.915 27.5441 19.6555 26.8751 19.6555Z" fill="#2C9B7F"/>
<path d="M42.5 19.209C41.9875 18.9755 41.1415 19.099 40.625 18.584C40.26 18.218 40 17.622 40 17.334C40 16.709 39.375 16.084 38.75 16.084H37.5C37.5 14.535 40.3175 15.3465 40.625 14.834C40.795 14.553 40.625 14.209 40 14.209C39.635 14.209 37.3445 14.209 36.875 14.209C35.326 14.209 35 16.709 35 16.709C33.9675 16.709 33.75 14.834 33.75 14.834C31.875 16.709 33.75 17.959 33.75 17.959C33.125 18.584 30.625 16.25 25.625 15.625C20.625 15 15 16.25 12.5 17.5C11.4855 18.007 8.125 20 8.125 22.5C8.125 24.077 8.125 28.125 8.125 28.125L7.5 30L9.375 31.875C9.414 30.703 9.375 26.25 9.375 23.75C9.375 22.5 10.625 21.875 10.625 21.875C10.625 21.875 10.625 29.5775 10.625 33.125C10.625 34.3065 13.125 39.375 13.125 39.375H15.625C15.625 39.375 14.375 36.8065 14.375 35.625C14.375 34.763 15.625 33.125 15.625 33.125C15.625 33.125 19.83 34.375 20.625 34.375C23.75 34.375 28.75 33.75 28.75 33.75L29.375 36.875L31.25 39.375H33.125L31.875 36.25C31.875 36.25 32.379 32.9785 33.125 32.5C36.543 30.3065 36.9035 28.5255 37.5 26.084C37.969 24.164 39.3545 22.959 40 22.959C41.0325 22.959 41.9835 22.8505 42.5 22.334C43.0165 21.8175 43.125 19.834 43.125 19.834C43.125 19.5485 42.8225 19.3545 42.5 19.209ZM29.5275 24.8065L26.4625 27.8705L23.782 30.552C22.3185 32.016 19.9425 32.016 18.4795 30.552C17.0145 29.087 17.0145 26.713 18.4795 25.2485L20.689 23.04V23.039L24.224 19.504C25.689 18.039 28.063 18.039 29.5275 19.504C30.259 20.2365 30.625 21.196 30.625 22.1555C30.625 23.115 30.259 24.075 29.5275 24.8065Z" fill="#2C9B7F"/>
<path d="M25 2.5C12.5935 2.5 2.5 12.5935 2.5 25C2.5 37.4065 12.5935 47.5 25 47.5C37.4065 47.5 47.5 37.4065 47.5 25C47.5 12.5935 37.4065 2.5 25 2.5ZM40.5525 37.5545L35.3295 32.441C34.9125 32.7855 34.444 33.134 33.8985 33.489C33.8125 33.628 33.7085 33.902 33.603 34.249L38.8615 39.3975C35.263 42.8625 30.378 45 25 45C13.972 45 5 36.028 5 25C5 19.773 7.0175 15.0105 10.3125 11.4435L14.397 15.4435C15.253 15.183 16.218 14.944 17.259 14.746L12.121 9.716C15.6035 6.7765 20.097 5 25 5C36.028 5 45 13.972 45 25C45 29.752 43.331 34.12 40.5525 37.5545Z" fill="#2C9B7F"/>
</svg>
