<svg width="45" height="45" viewBox="0 0 45 45" fill="none" xmlns="http://www.w3.org/2000/svg">
<path d="M22.5 33.75C22.5 33.75 24.2289 32.2996 24.529 32.0625H20.4705C20.7715 32.2996 22.5 33.75 22.5 33.75Z" fill="#2C9B7F"/>
<path d="M34.2743 25.2081C34.2666 25.1982 34.2536 25.1896 34.2432 25.1802C34.2225 25.1604 34.1991 25.1415 34.1685 25.1257C34.1514 25.1167 34.1312 25.11 34.1114 25.1023C34.0785 25.0902 34.0421 25.0789 34.0011 25.0704C33.9764 25.0645 33.9508 25.0605 33.9233 25.0569C33.8774 25.0506 33.8274 25.047 33.7743 25.0452C33.746 25.0443 33.7181 25.0425 33.6879 25.0429C33.588 25.0447 33.4796 25.0524 33.3613 25.0704C33.3428 25.0731 33.323 25.078 33.3046 25.0807C33.2015 25.0983 33.0917 25.1235 32.9774 25.1541C32.94 25.1635 32.9022 25.1748 32.864 25.186C32.7402 25.2238 32.612 25.2684 32.4797 25.3219C32.4626 25.3296 32.4473 25.3336 32.4306 25.3408C32.2844 25.4029 32.1323 25.4781 31.9789 25.5622C31.937 25.5847 31.8947 25.6095 31.8528 25.6342C31.7286 25.7062 31.6022 25.7872 31.4757 25.875C31.4366 25.902 31.3983 25.9267 31.3592 25.9551C31.2003 26.0707 31.041 26.1994 30.8826 26.3412C30.8498 26.3704 30.8174 26.4046 30.785 26.4352C30.6554 26.5563 30.5267 26.6877 30.3998 26.8276C30.3561 26.8758 30.3125 26.9244 30.2693 26.9743C30.1136 27.157 29.9597 27.3487 29.8117 27.5625C29.615 27.8464 29.4273 28.1115 29.2437 28.3671C28.3572 29.6055 27.6211 30.528 26.9992 31.2291C26.5852 31.6957 26.2211 32.0665 25.8967 32.368C25.52 32.7177 25.1951 32.9769 24.908 33.187C23.9126 33.9142 23.3479 34.0758 22.4992 35.5446C21.6505 34.0753 21.0857 33.9142 20.0903 33.187C19.7245 32.9193 19.3006 32.5759 18.7822 32.062C18.5428 31.8249 18.2818 31.5477 17.9987 31.2286C17.3768 30.5271 16.6406 29.605 15.7541 28.3666C15.5705 28.111 15.3829 27.846 15.1862 27.562C15.0386 27.3483 14.8847 27.157 14.729 26.9739C14.6858 26.9239 14.6422 26.8753 14.5981 26.8272C14.4712 26.6868 14.3434 26.5558 14.2138 26.4348C14.1809 26.4042 14.1481 26.37 14.1148 26.3403C13.9564 26.199 13.7971 26.0698 13.6387 25.9546C13.5995 25.9267 13.5613 25.9015 13.5221 25.8745C13.3957 25.7868 13.2692 25.7058 13.145 25.6338C13.1027 25.609 13.0609 25.5843 13.019 25.5618C12.8651 25.4772 12.7135 25.4025 12.5672 25.3404C12.5501 25.3332 12.5348 25.3291 12.5182 25.3215C12.3859 25.2679 12.2576 25.2234 12.1343 25.1856C12.0956 25.1743 12.0578 25.1631 12.0205 25.1536C11.9066 25.123 11.7968 25.0978 11.6933 25.0803C11.6749 25.0771 11.6546 25.0722 11.6366 25.0699C11.5183 25.0524 11.4098 25.0443 11.3095 25.0425C11.2793 25.042 11.2514 25.0438 11.2235 25.0447C11.1709 25.0465 11.1205 25.0506 11.0746 25.0564C11.0471 25.06 11.0215 25.0645 10.9967 25.0699C10.9562 25.0789 10.9198 25.0897 10.8865 25.1019C10.8667 25.1095 10.8464 25.1163 10.8293 25.1253C10.7987 25.141 10.7753 25.1599 10.7546 25.1797C10.7447 25.1892 10.7312 25.1973 10.7236 25.2076C10.7002 25.2391 10.6853 25.2733 10.6853 25.312C10.6853 25.8745 12.9353 26.9995 14.0603 32.1696C15.017 36.5665 19.6853 39.4821 22.4978 39.4821C25.3103 39.4821 29.9786 36.5665 30.9353 32.1696C30.965 32.0328 30.9988 31.9099 31.0298 31.7785C31.2544 30.8376 31.514 30.0379 31.7898 29.3575C32.9292 26.5491 34.3103 25.7521 34.3103 25.312C34.3126 25.2738 34.2981 25.2396 34.2743 25.2081Z" fill="#2C9B7F"/>
<path d="M22.5 2.25C11.3337 2.25 2.25 11.3337 2.25 22.5C2.25 33.6654 11.3337 42.75 22.5 42.75C33.6663 42.75 42.75 33.6654 42.75 22.5C42.75 11.3337 33.6663 2.25 22.5 2.25ZM36.3811 33.9471L32.6597 30.2256C32.4333 30.8479 32.22 31.5684 32.0373 32.4099C32.0152 32.5107 31.9819 32.6052 31.9572 32.7038L34.8399 35.586C31.9279 38.3328 28.1056 40.1197 23.8779 40.4424C23.4225 40.477 22.9639 40.5 22.5 40.5C22.0356 40.5 21.5766 40.477 21.1212 40.4419C11.839 39.735 4.5 31.9608 4.5 22.5C4.5 17.7268 6.3711 13.3848 9.4131 10.1601L13.5 14.247L14.7231 15.4696C14.6655 15.0214 14.625 14.5588 14.625 14.0625C14.625 13.4361 14.6745 12.8624 14.764 12.3291L11.0533 8.6184C14.1664 6.0471 18.1557 4.5 22.5 4.5C32.4252 4.5 40.5 12.5748 40.5 22.5C40.5 26.8438 38.9529 30.8331 36.3811 33.9471Z" fill="#2C9B7F"/>
<path d="M19.125 28.6875H18C18 27.9486 18.0504 27.1944 18.3226 26.4375H19.5394H25.4583C25.4448 26.411 25.4304 26.3849 25.416 26.3583C25.3809 26.294 25.3462 26.2292 25.3048 26.1639C25.3008 26.1567 25.2954 26.15 25.2909 26.1428C25.1163 25.8705 24.8899 25.5929 24.5997 25.3121H20.4012H18.9144C19.399 24.6276 20.1352 23.9459 21.2544 23.2758C20.4169 22.8911 19.6641 22.4978 19.0003 22.0892C17.0608 23.5499 16.2495 25.1348 15.9349 26.6792C15.9948 26.7597 16.0546 26.8376 16.1131 26.9213C16.9587 28.143 17.6652 29.0772 18.2704 29.8121H19.1254H25.8754V28.6871H19.125V28.6875Z" fill="#2C9B7F"/>
<path d="M28.9552 26.2206C28.9251 26.1086 28.8918 25.9965 28.8553 25.8844C28.8252 25.7917 28.7937 25.6986 28.759 25.6054C28.7334 25.5361 28.7059 25.4659 28.6771 25.3962C28.6258 25.2706 28.5714 25.1446 28.5102 25.0191C28.4823 24.9615 28.4517 24.9039 28.422 24.8463C28.3648 24.7351 28.3032 24.6244 28.2379 24.5137C28.2078 24.4624 28.1781 24.4111 28.1461 24.3598C28.0557 24.2163 27.9585 24.0723 27.8536 23.9287C27.8226 23.886 27.7888 23.8441 27.7564 23.8009C27.6543 23.6682 27.5472 23.5363 27.4315 23.4045C27.4099 23.3788 27.3897 23.3545 27.3676 23.3289C27.2317 23.1777 27.0837 23.0274 26.928 22.878C26.8906 22.842 26.8524 22.8055 26.8137 22.77C26.6499 22.6179 26.4784 22.4667 26.293 22.3164C26.2741 22.3015 26.2534 22.2867 26.2341 22.271C26.0559 22.1301 25.8664 21.9892 25.6675 21.8497C25.6284 21.8223 25.5901 21.7944 25.5501 21.7665C24.8296 21.2755 23.9751 20.7994 22.9563 20.3467C22.7961 20.2761 22.6552 20.2059 22.5054 20.1352C22.5036 20.1361 22.5018 20.137 22.4995 20.1379C22.3983 20.0907 22.3056 20.0434 22.2088 19.9966C22.1467 19.966 22.0824 19.9355 22.0216 19.9049C21.7908 19.7892 21.5716 19.6744 21.3664 19.5606C21.3075 19.5282 21.2544 19.4953 21.1977 19.4629C21.0559 19.3815 20.9187 19.3005 20.7891 19.2204C20.7139 19.1732 20.6383 19.1264 20.5668 19.08C20.4588 19.0098 20.358 18.9396 20.259 18.8698C20.1267 18.7776 20.0029 18.6853 19.8855 18.5935C19.8387 18.5571 19.7914 18.5206 19.7469 18.4842C19.6569 18.4108 19.5714 18.338 19.4908 18.2646C19.4769 18.2529 19.4647 18.2407 19.4512 18.2286C19.1695 17.9703 18.9409 17.7178 18.7587 17.469C18.7402 17.4442 18.7218 17.4199 18.7042 17.3952C18.6552 17.3254 18.6079 17.2553 18.5652 17.1864C18.5386 17.1428 18.5152 17.1009 18.4909 17.0577C18.4581 16.9996 18.4239 16.9407 18.3955 16.8831C18.3946 16.88 18.3924 16.8772 18.391 16.8745C18.3762 16.8448 18.3658 16.8156 18.3528 16.7864C18.2839 16.6352 18.2268 16.4857 18.1827 16.3381C18.1773 16.3192 18.1696 16.2999 18.1647 16.2814C18.1449 16.2117 18.1296 16.1424 18.1143 16.074C18.1066 16.0394 18.0981 16.0052 18.0913 15.971C18.0792 15.9053 18.0684 15.8413 18.0594 15.7765C18.054 15.7396 18.0486 15.7014 18.0436 15.6636C18.0364 15.6019 18.0297 15.5407 18.0247 15.4791C18.0216 15.4399 18.0184 15.4004 18.0162 15.3617C18.0126 15.3014 18.0085 15.242 18.0067 15.183C18.0054 15.1457 18.0049 15.1083 18.004 15.071C18.0013 14.9211 18 14.7721 18 14.625C18 14.4661 18.0072 14.319 18.013 14.17C18.0148 14.1273 18.0144 14.0805 18.0166 14.0382C18.1678 11.1163 19.4697 10.0062 21.3012 8.8389C21.3088 8.8335 21.3165 8.82945 21.3241 8.8245C21.5338 8.6913 21.748 8.55675 21.9708 8.4195C22.1463 8.3106 22.3236 8.19405 22.5 8.08245C22.6768 8.1936 22.8537 8.31015 23.0287 8.41905C23.238 8.5482 23.44 8.67465 23.638 8.80065C23.6623 8.81595 23.6871 8.83215 23.7114 8.84745C23.8621 8.9442 24.0088 9.0405 24.1519 9.13725C24.169 9.14895 24.1857 9.16065 24.2023 9.1719C24.3373 9.2637 24.4687 9.3564 24.5961 9.45045C24.6046 9.45675 24.6127 9.4626 24.6213 9.46845C24.9003 9.6768 25.1608 9.8919 25.3993 10.1254H23.6088H21.3916C21.2625 10.2136 21.1387 10.3023 21.0204 10.3914C21.0181 10.3932 21.0163 10.3946 21.0145 10.3964C20.898 10.4841 20.7864 10.5732 20.6806 10.6641C20.6793 10.6654 20.6779 10.6663 20.6761 10.6672C20.461 10.8517 20.268 11.0439 20.0961 11.2509H24.9048H26.2692C26.437 11.5506 26.5788 11.8814 26.6913 12.2526C26.6917 12.2549 26.6922 12.2566 26.6926 12.2584C26.8051 12.6301 26.8879 13.0405 26.9383 13.5013H25.8084H19.1916C19.1488 13.8402 19.1254 14.211 19.1254 14.6263H25.875H27C27 15.1978 26.995 15.7963 26.788 16.4259C26.7394 16.5739 26.6827 16.7242 26.6085 16.8763H25.2913H19.7248C19.9957 17.235 20.3863 17.6067 20.9605 18.0013H24.0453H25.7859C25.317 18.4792 24.664 18.9742 23.7618 19.4877C24.6154 19.8864 25.3606 20.3026 26.0104 20.7342C27.8253 19.4719 28.6798 18.1534 29.0322 16.6824C29.1883 16.0276 29.25 15.3463 29.25 14.625C29.25 9.6291 26.5752 7.97085 24.2154 6.50745C23.854 6.28335 23.4877 6.0561 23.125 5.814L23.1246 5.81445C22.9387 5.69025 22.7209 5.62545 22.4995 5.625C22.2826 5.62545 22.0653 5.68845 21.8767 5.814C21.5136 6.05565 21.1473 6.28245 20.7859 6.50655C18.4257 7.96995 15.7509 9.62865 15.7509 14.625C15.7509 14.6511 15.7522 14.6759 15.7522 14.702C15.7531 14.8527 15.7558 15.0012 15.7626 15.1483C15.7653 15.2131 15.7711 15.2761 15.7752 15.3405C15.7819 15.4503 15.7891 15.5587 15.7999 15.6667C15.8067 15.7369 15.8157 15.8067 15.8242 15.876C15.8368 15.9768 15.8508 16.0762 15.867 16.1761C15.8782 16.2459 15.8908 16.3152 15.9043 16.384C15.9232 16.4835 15.9453 16.5816 15.9691 16.6797C15.9849 16.7454 16.0002 16.8111 16.0177 16.8763C16.0461 16.9812 16.0794 17.0856 16.114 17.1891C16.1325 17.2445 16.1487 17.3007 16.1685 17.3552C16.2252 17.5118 16.2877 17.6661 16.3588 17.8195C16.3665 17.8353 16.3755 17.8506 16.3827 17.8663C16.4484 18.0049 16.5204 18.1413 16.5987 18.2772C16.6288 18.3294 16.6635 18.3803 16.6954 18.4329C16.7566 18.5319 16.8196 18.6304 16.8889 18.7281C16.9299 18.7866 16.974 18.8442 17.0176 18.9018C17.0869 18.9932 17.1589 19.0836 17.235 19.1741C17.284 19.2326 17.3349 19.2906 17.3871 19.3491C17.4685 19.4396 17.5549 19.5291 17.644 19.6186C17.6994 19.6749 17.7534 19.7302 17.8119 19.7856C17.9149 19.8832 18.0252 19.98 18.1377 20.0763C18.1912 20.1222 18.2407 20.1676 18.2961 20.2131C18.4684 20.3539 18.6498 20.4943 18.8442 20.6338C18.8649 20.6487 18.8892 20.6635 18.9099 20.6788C19.0863 20.8035 19.2712 20.9277 19.467 21.051C19.5403 21.0978 19.6204 21.1437 19.6965 21.1909C20.3674 21.5982 21.1392 22.0023 22.0432 22.4037C22.2025 22.4743 22.3452 22.5455 22.4946 22.6175C22.4968 22.6161 22.4982 22.6152 22.5004 22.6143C22.5697 22.6467 22.6305 22.68 22.6971 22.7128C22.7956 22.761 22.8924 22.8096 22.986 22.8586C23.1277 22.9315 23.2632 23.0053 23.3955 23.0787C23.4823 23.1273 23.571 23.1759 23.6542 23.2249C23.7834 23.3005 23.9044 23.377 24.0232 23.4526C24.0961 23.4994 24.1726 23.5458 24.2419 23.5917C24.3756 23.6821 24.4998 23.7717 24.6208 23.8626C24.7207 23.9373 24.8148 24.0106 24.9061 24.0853C24.9975 24.1596 25.0897 24.2334 25.1734 24.3076C25.2481 24.3738 25.3147 24.4399 25.3836 24.507C25.4398 24.5614 25.4974 24.6155 25.5501 24.6708C25.6185 24.7415 25.6819 24.8125 25.744 24.8845C25.7868 24.9331 25.8295 24.9831 25.8696 25.0317C25.9303 25.1068 25.9884 25.1815 26.0428 25.2562C26.0568 25.2756 26.0734 25.2949 26.0869 25.3134C26.0977 25.3287 26.1045 25.344 26.1153 25.3597C26.2287 25.524 26.3308 25.6878 26.4172 25.8525C26.4231 25.8633 26.4298 25.8745 26.4357 25.8849C26.5257 26.0599 26.6008 26.2341 26.6652 26.4083C26.6688 26.4182 26.6746 26.4289 26.6782 26.4384C26.6863 26.4604 26.6899 26.4825 26.6971 26.5041C26.7475 26.6517 26.7907 26.7988 26.8258 26.946C26.8339 26.9784 26.8429 27.0103 26.8497 27.0427C26.887 27.2142 26.9172 27.3852 26.9383 27.5553C26.9415 27.58 26.9428 27.603 26.946 27.6273C26.9626 27.7735 26.9748 27.9193 26.9829 28.0651C26.9856 28.1119 26.9883 28.1587 26.9901 28.2055C26.9959 28.3554 26.9995 28.5048 26.9995 28.6533C26.9995 28.6645 27.0004 28.6771 27.0004 28.6884V29.4831C27.544 28.8027 28.1659 27.9657 28.8877 26.923C28.9458 26.8389 29.0061 26.7615 29.0659 26.6809C29.0484 26.5945 29.0277 26.5073 29.0065 26.4204C28.9903 26.3529 28.9732 26.2872 28.9552 26.2206Z" fill="#2C9B7F"/>
</svg>
