<svg width="57" height="57" viewBox="0 0 57 57" fill="none" xmlns="http://www.w3.org/2000/svg">
<path d="M48.6487 8.35132C43.2607 2.96337 36.1105 0 28.5 0C20.8895 0 13.728 2.96337 8.35132 8.35132C2.96337 13.7393 0 20.8895 0 28.5C0 36.1105 2.96337 43.272 8.35132 48.6487C13.7393 54.0366 20.8895 57 28.5 57C36.1105 57 43.272 54.0366 48.6487 48.6487C54.0366 43.2607 57 36.1105 57 28.5C57 20.8895 54.0366 13.728 48.6487 8.35132ZM10.8881 10.8881C15.5914 6.18492 21.8436 3.59197 28.5 3.59197C34.5502 3.59197 40.2749 5.73592 44.7985 9.66463L36.5258 17.9374V15.6587C37.3901 15.4342 38.131 14.873 38.6136 14.076C39.2422 13.0209 39.2647 11.7412 38.681 10.6524L37.8616 9.13706C37.2554 8.0258 36.088 7.32985 34.8196 7.32985H22.7416C21.7538 7.32985 20.9456 8.13805 20.9456 9.12584V13.9638C20.9456 14.8954 21.6528 15.6587 22.562 15.7485C21.4844 18.1619 19.7334 20.0926 17.2639 21.6079C16.422 22.1243 16.1526 23.2355 16.669 24.0774C17.0057 24.6274 17.6006 24.9417 18.2068 24.9417C18.5211 24.9417 18.8466 24.8519 19.1384 24.6723C22.4947 22.6182 24.8519 19.8344 26.1877 16.3659C26.3448 16.5006 26.4907 16.6577 26.6142 16.8373C26.9959 17.3761 27.153 18.016 27.0744 18.6445C26.5805 18.9813 26.1652 19.4303 25.8734 19.9691L19.464 31.4297C18.5435 33.0685 17.9486 34.8757 17.7017 36.7391L9.66463 44.7761C5.73592 40.2525 3.59197 34.5278 3.59197 28.4776C3.59197 21.8436 6.18492 15.5914 10.8881 10.8881ZM46.1119 46.1119C41.4086 50.8151 35.1564 53.408 28.5 53.408C22.4498 53.408 16.7251 51.2641 12.2015 47.3354L47.3354 12.2015C51.2641 16.7251 53.408 22.4498 53.408 28.5C53.408 35.1564 50.8151 41.4086 46.1119 46.1119Z" fill="#2C9B7F"/>
<path d="M39.579 25.0652L17.9374 46.718C18.6558 48.4466 20.362 49.6589 22.3488 49.6589H35.8074C38.4453 49.6589 40.5892 47.515 40.5892 44.8771V30.7338C40.5892 29.0612 40.331 27.4112 39.8259 25.8285L39.579 25.0652Z" fill="#2C9B7F"/>
</svg>
