<svg width="41" height="41" viewBox="0 0 41 41" fill="none" xmlns="http://www.w3.org/2000/svg">
<path d="M34.9929 6.00709C31.1174 2.13155 25.9742 0 20.5 0C15.0258 0 9.87456 2.13155 6.00709 6.00709C2.13155 9.88263 0 15.0258 0 20.5C0 25.9742 2.13155 31.1254 6.00709 34.9929C9.88263 38.8685 15.0258 41 20.5 41C25.9742 41 31.1254 38.8685 34.9929 34.9929C38.8685 31.1174 41 25.9742 41 20.5C41 15.0258 38.8685 9.87456 34.9929 6.00709ZM7.83182 7.83182C11.2148 4.4488 15.7121 2.58369 20.5 2.58369C24.8519 2.58369 28.9697 4.12584 32.2235 6.95175L26.2729 12.9023V11.2633C26.8946 11.1018 27.4275 10.6981 27.7747 10.1249C28.2269 9.36589 28.243 8.44545 27.8232 7.66227L27.2338 6.57227C26.7978 5.77294 25.9581 5.27235 25.0457 5.27235H16.358C15.6475 5.27235 15.0662 5.85368 15.0662 6.5642V10.0441C15.0662 10.7143 15.5748 11.2633 16.2288 11.3279C15.4537 13.0638 14.1942 14.4525 12.4179 15.5425C11.8123 15.9139 11.6186 16.7133 11.99 17.3188C12.2322 17.7145 12.6601 17.9405 13.0961 17.9405C13.3222 17.9405 13.5563 17.8759 13.7662 17.7468C16.1804 16.2692 17.8759 14.2668 18.8367 11.772C18.9498 11.8688 19.0547 11.9819 19.1436 12.1111C19.4181 12.4986 19.5311 12.9588 19.4746 13.411C19.1193 13.6532 18.8206 13.9762 18.6107 14.3637L14.0004 22.6073C13.3383 23.7861 12.9104 25.0861 12.7328 26.4263L6.95175 32.2074C4.12584 28.9535 2.58369 24.8358 2.58369 20.4839C2.58369 15.7121 4.4488 11.2148 7.83182 7.83182ZM33.1682 33.1682C29.7852 36.5512 25.2879 38.4163 20.5 38.4163C16.1481 38.4163 12.0303 36.8742 8.77649 34.0482L34.0482 8.77649C36.8742 12.0303 38.4163 16.1481 38.4163 20.5C38.4163 25.2879 36.5512 29.7852 33.1682 33.1682Z" fill="#2C9B7F"/>
<path d="M28.4691 18.0293L12.9023 33.6041C13.4191 34.8475 14.6463 35.7195 16.0754 35.7195H25.7562C27.6536 35.7195 29.1958 34.1774 29.1958 32.28V22.1067C29.1958 20.9037 29.0101 19.7168 28.6467 18.5783L28.4691 18.0293Z" fill="#2C9B7F"/>
</svg>
