<svg width="60" height="60" viewBox="0 0 60 60" fill="none" xmlns="http://www.w3.org/2000/svg">
<path d="M40.3063 47.6375C40.3063 48.1625 40.3313 48.6938 40.1688 49.2C39.7688 50.4375 38.625 51.2875 37.325 51.3188C37.125 51.325 36.925 51.3188 36.725 51.3188H23.9188C23.5938 51.3188 23.2688 51.3188 22.9375 51.3188C22.125 51.3188 21.3563 51.05 20.7563 50.4875C20.1 49.875 19.8125 49.025 19.8125 48.15V45.4938L21.2313 44.075C22.95 42.3563 24.6625 40.6438 26.3813 38.925C28.2625 37.0438 30.1438 35.1625 32.025 33.2813L40.3063 25C40.3063 25.5563 40.3063 26.1125 40.3063 26.6688C40.3063 27.025 40.3188 27.3813 40.3063 27.7313C40.2875 28.3375 40.0125 28.8875 39.5187 29.2375C39.2812 29.4063 39.0062 29.5125 38.7188 29.55C38.6562 29.5563 38.575 29.55 38.5125 29.5625V39.05C38.5125 39.3063 38.525 39.5688 38.5125 39.8188C38.6063 39.825 38.7062 39.8375 38.8 39.85C39.125 39.9063 39.425 40.0625 39.675 40.275C40.0875 40.625 40.2938 41.1438 40.3063 41.675C40.3375 42.9188 40.3063 44.1625 40.3063 45.4063V47.6375V47.6375Z" fill="#2C9B7F"/>
<path d="M34.8687 15.6562C34.6 15.4875 34.3312 15.3187 34.0624 15.15C33.9937 15.1062 33.9187 15.0687 33.8562 15.0187H33.8499C33.8124 14.7437 33.8499 14.4375 33.8499 14.1625V13.9812H34.0812C34.5124 13.9812 34.8812 13.7562 34.9062 13.275C34.9249 12.8812 34.9062 12.4875 34.9062 12.1V10.6C34.9062 10.025 34.7937 9.475 34.3562 9.05625C34.0437 8.75625 33.6374 8.6 33.2124 8.56875C33.2124 8.56875 33.2124 8.56875 33.2062 8.56875C33.1812 8.5625 33.1562 8.5625 33.1249 8.5625H27.9749C27.6749 8.5625 27.3812 8.5625 27.0812 8.5625C26.4437 8.56875 25.8437 8.84375 25.4999 9.4C25.2249 9.83125 25.2249 10.3 25.2249 10.7875V12.3687C25.2249 12.6812 25.2062 12.9937 25.2249 13.3062C25.2562 13.8312 25.6874 13.9875 26.1312 13.9875H26.2812V14.2313C26.2812 14.475 26.3312 14.7875 26.2812 15.025C26.2749 15.0312 26.2562 15.0437 26.2374 15.0562C26.1499 15.1062 26.0624 15.1687 25.9749 15.2188C25.6624 15.4125 25.3437 15.6125 25.0312 15.8062C24.4374 16.175 23.8499 16.5438 23.2562 16.9125C22.3187 17.5 21.5249 18.2563 20.9312 19.1875C20.2249 20.2938 19.8437 21.5938 19.8249 22.9062C19.8187 23.4 19.8249 23.9 19.8249 24.4V26.8312C19.8249 27.4437 19.7499 28.1125 20.0687 28.6625C20.4187 29.2625 20.9624 29.4937 21.6124 29.5812C21.6124 29.5937 21.6124 29.6188 21.6187 29.6625C21.6249 30.0813 21.6187 30.5 21.6187 30.9188V33.1063C21.8249 32.9 22.0374 32.6875 22.2437 32.4813L22.4312 32.2938C22.5812 32.1438 22.7249 32 22.8749 31.85C24.6187 30.1062 26.3624 28.3625 28.1062 26.6187C29.9874 24.7375 31.8687 22.8563 33.7499 20.975C34.6749 20.0438 35.6062 19.1187 36.5374 18.1875C36.6874 18.0375 36.8375 17.8875 36.9875 17.7375C37.1375 17.5875 37.2875 17.4375 37.4375 17.2875C36.6187 16.675 35.7062 16.1812 34.8687 15.6562Z" fill="#2C9B7F"/>
<path d="M59.9375 29.8813C59.925 26.8188 59.4625 23.7188 58.5125 20.8C57.5875 17.95 56.25 15.2188 54.5125 12.775C54.1187 12.225 53.7125 11.6938 53.2937 11.175C52.7125 10.4563 52.1 9.77501 51.4562 9.11876C51.3 8.95626 51.1375 8.79376 50.975 8.63126C50.2937 7.96251 49.575 7.31876 48.825 6.71251C48.5687 6.50001 48.3062 6.29376 48.0437 6.09376C45.6625 4.26251 43 2.85626 40.1875 1.82501C37.3062 0.768756 34.2312 0.200006 31.1625 0.0812563C28.0562 -0.0374937 24.8875 0.337506 21.8937 1.19376C19.025 2.01251 16.2437 3.26876 13.7562 4.90626C11.2875 6.53126 9.03747 8.50001 7.15622 10.775C6.16247 11.9813 5.23122 13.25 4.42497 14.5938C3.61247 15.95 2.93747 17.375 2.33747 18.8438C1.16247 21.6875 0.512467 24.7 0.274967 27.7563C0.0312165 30.875 0.312466 34.0563 1.04997 37.0938C1.75622 40 2.93122 42.8313 4.48122 45.3813C5.18122 46.5375 5.96872 47.6563 6.82497 48.7188C7.46247 49.5125 8.14372 50.2688 8.85622 50.9875C8.86872 51 8.88122 51.0125 8.89372 51.025C9.29372 51.425 9.69997 51.8125 10.1187 52.1875C10.4937 52.525 10.8812 52.85 11.275 53.1625C13.2 54.7188 15.3125 56.0563 17.5687 57.075C19.0187 57.7313 20.5125 58.3 22.05 58.7313C23.6062 59.1625 25.1937 59.4375 26.8 59.625C29.925 59.9938 33.1 59.8063 36.1812 59.1813C39.125 58.5813 41.9937 57.4938 44.6187 56.0313C47.2062 54.5938 49.6 52.7313 51.6437 50.5938C53.6812 48.4563 55.4375 46.0063 56.7562 43.3625C58.1062 40.65 59.0812 37.7563 59.5375 34.7563C59.7812 33.1813 59.9312 31.5938 59.9375 29.9938C59.9375 29.975 59.9375 29.9625 59.9375 29.9438V29.9375C59.9375 29.9188 59.9375 29.9 59.9375 29.8813ZM10.55 46.3625C10.3187 46.0938 10.0937 45.8125 9.86872 45.5375C9.76872 45.4063 9.66872 45.2688 9.56872 45.1375C8.37497 43.4938 7.35622 41.725 6.54372 39.8563C5.69372 37.775 5.09997 35.6 4.77497 33.375C4.49372 31.1 4.49372 28.7938 4.77497 26.5188C5.09997 24.2938 5.69372 22.1188 6.54372 20.0375C7.42497 18.0188 8.53747 16.1125 9.86872 14.3563C11.2187 12.65 12.7625 11.1063 14.4687 9.75626C16.225 8.43126 18.1312 7.31251 20.15 6.43126C22.2312 5.58126 24.4062 4.98751 26.6312 4.66251C28.9062 4.38126 31.2125 4.38126 33.4875 4.66251C35.7125 4.98751 37.8875 5.58126 39.9687 6.43126C41.8312 7.24376 43.6062 8.26251 45.25 9.45626C45.3875 9.55626 45.5187 9.65626 45.65 9.75626C45.9312 9.97501 46.2062 10.2063 46.475 10.4375C45.7125 11.2 44.95 11.9625 44.1875 12.725C42.7875 14.125 41.3875 15.5313 39.9812 16.9313C39.5062 17.4063 39.0312 17.8813 38.5562 18.3563C38.4062 18.5063 38.2625 18.65 38.1125 18.8C37.9625 18.95 37.8125 19.1 37.6625 19.25C36.7187 20.1938 35.7687 21.1375 34.825 22.0875C32.9437 23.9688 31.0625 25.85 29.1812 27.7313C27.2875 29.625 25.4 31.5125 23.5062 33.4063L22.8375 34.075C22.6312 34.2813 22.4187 34.4938 22.2125 34.7C22.0062 34.9063 21.7937 35.1188 21.5875 35.325C20.4625 36.45 19.3375 37.575 18.2125 38.7L13.75 43.1625C12.6812 44.225 11.6125 45.2938 10.55 46.3625ZM55.3562 33.3625C55.0312 35.5875 54.4375 37.7688 53.5875 39.85C52.7062 41.8688 51.5937 43.775 50.2625 45.5313C48.9125 47.2375 47.3687 48.7813 45.6625 50.1313C43.9062 51.4563 42 52.575 39.9812 53.4563C37.9 54.3063 35.725 54.9 33.5 55.225C31.225 55.5 28.9187 55.5 26.6437 55.225C24.4187 54.9 22.2437 54.3063 20.1625 53.4563C18.3 52.6438 16.525 51.625 14.8812 50.4313C14.7437 50.3313 14.6125 50.2313 14.475 50.1313C14.1937 49.9125 13.9187 49.6813 13.65 49.45C14.4125 48.6875 15.175 47.925 15.9375 47.1625L20.1437 42.9563C20.25 42.85 20.35 42.75 20.4562 42.6438C20.6625 42.4375 20.8687 42.225 21.0812 42.0188C21.4375 41.6625 21.7875 41.3125 22.1437 40.9563C22.3562 40.7438 22.5687 40.5313 22.7812 40.3188C23.6187 39.4813 24.4562 38.6438 25.3 37.8C27.1812 35.9188 29.0625 34.0375 30.9437 32.1563C32.8375 30.2625 34.725 28.375 36.6187 26.4813C37.4375 25.6625 38.2625 24.8375 39.0812 24.0188C39.2875 23.8125 39.4937 23.6063 39.7062 23.3938C39.9125 23.1875 40.1187 22.9813 40.325 22.775C40.8562 22.2438 41.3812 21.7188 41.9125 21.1875L46.4 16.7C47.4687 15.6313 48.5375 14.5688 49.6 13.5C49.8312 13.7688 50.0562 14.05 50.2812 14.325C50.3812 14.4563 50.4812 14.5938 50.5812 14.7313C51.775 16.375 52.7937 18.1438 53.6062 20.0125C54.4562 22.0938 55.05 24.275 55.375 26.5C55.5125 27.6375 55.5812 28.775 55.5812 29.925C55.5625 31.0813 55.4937 32.225 55.3562 33.3625Z" fill="#2C9B7F"/>
</svg>
