<svg width="45" height="45" viewBox="0 0 45 45" fill="none" xmlns="http://www.w3.org/2000/svg">
<g clip-path="url(#clip0)">
<path d="M30.8574 36.2321C30.8574 36.6104 30.8754 36.9931 30.7583 37.3578C30.4701 38.2493 29.6462 38.8617 28.7096 38.8842C28.5656 38.8887 28.4215 38.8842 28.2774 38.8842H19.0516C18.8175 38.8842 18.5833 38.8842 18.3447 38.8842C17.7593 38.8842 17.2055 38.6906 16.7733 38.2853C16.3005 37.8441 16.0934 37.2317 16.0934 36.6014V34.6878L17.1155 33.6657C18.3537 32.4275 19.5874 31.1937 20.8256 29.9555C22.1809 28.6003 23.5362 27.245 24.8914 25.8897L30.8574 19.9238C30.8574 20.3245 30.8574 20.7252 30.8574 21.126C30.8574 21.3826 30.8664 21.6393 30.8574 21.8914C30.8439 22.3282 30.6457 22.7244 30.29 22.9765C30.1189 23.0981 29.9208 23.1746 29.7137 23.2017C29.6687 23.2062 29.6102 23.2017 29.5651 23.2107V30.0456C29.5651 30.2302 29.5741 30.4193 29.5651 30.5994C29.6327 30.6039 29.7047 30.6129 29.7722 30.6219C30.0064 30.6624 30.2225 30.775 30.4026 30.9281C30.6998 31.1802 30.8484 31.554 30.8574 31.9367C30.8799 32.8327 30.8574 33.7287 30.8574 34.6247V36.2321V36.2321Z" fill="#2C9B7F"/>
<path d="M26.9401 13.1925C26.7465 13.0709 26.5528 12.9493 26.3592 12.8278C26.3097 12.7962 26.2557 12.7692 26.2106 12.7332H26.2061C26.1791 12.5351 26.2061 12.3145 26.2061 12.1163V11.9858H26.3727C26.6834 11.9858 26.9491 11.8237 26.9671 11.477C26.9806 11.1933 26.9671 10.9097 26.9671 10.6305V9.54987C26.9671 9.13564 26.886 8.73941 26.5709 8.43774C26.3457 8.22161 26.0531 8.10905 25.7469 8.08653C25.7469 8.08653 25.7469 8.08653 25.7424 8.08653C25.7244 8.08203 25.7064 8.08203 25.6838 8.08203H21.9737C21.7576 8.08203 21.546 8.08203 21.3298 8.08203C20.8706 8.08653 20.4383 8.28465 20.1907 8.68538C19.9926 8.99606 19.9926 9.33375 19.9926 9.68495V10.8241C19.9926 11.0492 19.9791 11.2744 19.9926 11.4995C20.0151 11.8777 20.3258 11.9903 20.6454 11.9903H20.7535V12.1659C20.7535 12.3415 20.7895 12.5666 20.7535 12.7377C20.749 12.7422 20.7355 12.7512 20.722 12.7602C20.659 12.7962 20.5959 12.8413 20.5329 12.8773C20.3078 13.0169 20.0781 13.1609 19.853 13.3005C19.4252 13.5662 19.002 13.8318 18.5743 14.0975C17.8989 14.5207 17.327 15.0655 16.8993 15.7364C16.3905 16.5334 16.1158 17.4699 16.1023 18.4155C16.0978 18.7712 16.1023 19.1314 16.1023 19.4916V21.2431C16.1023 21.6843 16.0483 22.1661 16.2779 22.5624C16.5301 22.9946 16.9218 23.1612 17.3901 23.2242C17.3901 23.2332 17.3901 23.2512 17.3946 23.2828C17.3991 23.5844 17.3946 23.8861 17.3946 24.1878V25.7637C17.5432 25.6151 17.6963 25.462 17.8448 25.3134L17.9799 25.1784C18.088 25.0703 18.1915 24.9667 18.2996 24.8587C19.5558 23.6024 20.812 22.3462 22.0683 21.09C23.4235 19.7347 24.7788 18.3794 26.1341 17.0242C26.8005 16.3533 27.4714 15.6869 28.1423 15.016C28.2503 14.908 28.3584 14.7999 28.4664 14.6918C28.5745 14.5838 28.6826 14.4757 28.7906 14.3676C28.2008 13.9264 27.5434 13.5707 26.9401 13.1925Z" fill="#2C9B7F"/>
<path d="M45 23.4403C44.991 21.2341 44.6578 19.0008 43.9734 16.8981C43.307 14.8449 42.3435 12.8773 41.0918 11.1167C40.8081 10.7205 40.5154 10.3378 40.2138 9.96408C39.795 9.44628 39.3538 8.9555 38.89 8.48273C38.7774 8.36566 38.6604 8.2486 38.5433 8.13153C38.0525 7.64975 37.5347 7.18599 36.9944 6.74923C36.8098 6.59615 36.6207 6.44756 36.4316 6.30348C34.7161 4.98422 32.798 3.97114 30.7718 3.22821C28.6962 2.46727 26.4809 2.05754 24.2701 1.97199C22.0323 1.88644 19.7495 2.1566 17.5928 2.77345C15.5261 3.36329 13.5224 4.26831 11.7304 5.44799C9.95188 6.61866 8.33095 8.03697 6.97567 9.67592C6.25976 10.5449 5.58888 11.4589 5.00804 12.427C4.42271 13.4041 3.93643 14.4306 3.50418 15.4888C2.65769 17.5374 2.18942 19.7077 2.01832 21.9094C1.84272 24.1562 2.04534 26.4481 2.57664 28.6363C3.08544 30.73 3.93192 32.7697 5.04856 34.6067C5.55285 35.4397 6.12018 36.2457 6.73704 37.0111C7.1963 37.583 7.68708 38.1278 8.20038 38.6456C8.20938 38.6546 8.21839 38.6636 8.22739 38.6726C8.51556 38.9607 8.80822 39.2399 9.1099 39.5101C9.38005 39.7532 9.65921 39.9873 9.94288 40.2125C11.3297 41.3336 12.8515 42.2972 14.477 43.0311C15.5216 43.5039 16.5977 43.9136 17.7053 44.2243C18.8265 44.5349 19.9701 44.7331 21.1273 44.8681C23.3786 45.1338 25.6659 44.9987 27.8857 44.5485C30.0064 44.1162 32.0731 43.3328 33.9642 42.2791C35.8283 41.2436 37.5527 39.9018 39.0251 38.3619C40.4929 36.822 41.7582 35.057 42.7082 33.1524C43.6808 31.1983 44.3832 29.1136 44.7119 26.9523C44.8875 25.8177 44.9955 24.674 45 23.5214C45 23.5079 45 23.4989 45 23.4854V23.4808C45 23.4673 45 23.4538 45 23.4403ZM9.42058 35.3136C9.25398 35.12 9.09189 34.9174 8.92979 34.7193C8.85775 34.6248 8.78571 34.5257 8.71367 34.4311C7.85368 33.247 7.11975 31.9727 6.53442 30.6265C5.92207 29.1271 5.49432 27.5602 5.26019 25.9573C5.05757 24.3183 5.05757 22.6569 5.26019 21.0179C5.49432 19.415 5.92207 17.8481 6.53442 16.3488C7.16928 14.8944 7.97074 13.5211 8.92979 12.2559C9.90235 11.0267 11.0145 9.91455 12.2437 8.942C13.5089 7.98745 14.8822 7.18148 16.3365 6.54662C17.8359 5.93427 19.4028 5.50652 21.0057 5.27239C22.6447 5.06977 24.3061 5.06977 25.9451 5.27239C27.548 5.50652 29.1149 5.93427 30.6143 6.54662C31.956 7.13195 33.2348 7.86588 34.4189 8.72587C34.518 8.79791 34.6126 8.86995 34.7071 8.942C34.9097 9.09959 35.1078 9.26618 35.3014 9.43278C34.7521 9.98209 34.2028 10.5314 33.6535 11.0807C32.6449 12.0893 31.6363 13.1024 30.6233 14.111C30.2811 14.4532 29.9389 14.7954 29.5967 15.1376C29.4886 15.2456 29.385 15.3492 29.277 15.4572C29.1689 15.5653 29.0609 15.6734 28.9528 15.7814C28.2729 16.4613 27.5885 17.1412 26.9086 17.8256C25.5533 19.1809 24.1981 20.5362 22.8428 21.8914C21.4785 23.2557 20.1187 24.6155 18.7544 25.9798L18.2727 26.4616C18.1241 26.6101 17.971 26.7632 17.8224 26.9118C17.6738 27.0604 17.5207 27.2135 17.3721 27.3621C16.5617 28.1725 15.7512 28.983 14.9407 29.7935L11.7259 33.0083C10.956 33.7738 10.186 34.5437 9.42058 35.3136ZM41.6996 25.9483C41.4655 27.5512 41.0377 29.1226 40.4254 30.622C39.7905 32.0763 38.9891 33.4496 38.03 34.7148C37.0575 35.944 35.9453 37.0561 34.7161 38.0287C33.4509 38.9833 32.0776 39.7892 30.6233 40.4241C29.1239 41.0364 27.557 41.4642 25.9541 41.6983C24.3151 41.8964 22.6537 41.8964 21.0147 41.6983C19.4118 41.4642 17.8449 41.0364 16.3456 40.4241C15.0038 39.8387 13.7251 39.1048 12.5409 38.2448C12.4418 38.1728 12.3473 38.1007 12.2482 38.0287C12.0456 37.8711 11.8475 37.7045 11.6539 37.5379C12.2032 36.9886 12.7525 36.4393 13.3018 35.89L16.332 32.8597C16.4086 32.7832 16.4806 32.7112 16.5572 32.6346C16.7058 32.486 16.8543 32.3329 17.0074 32.1843C17.2641 31.9277 17.5162 31.6756 17.7729 31.4189C17.926 31.2658 18.0791 31.1127 18.2321 30.9596C18.8355 30.3563 19.4388 29.753 20.0467 29.1451C21.402 27.7898 22.7572 26.4345 24.1125 25.0793C25.4768 23.715 26.8366 22.3552 28.2009 20.9909C28.7907 20.4011 29.385 19.8067 29.9749 19.2169C30.1235 19.0683 30.2721 18.9197 30.4251 18.7666C30.5737 18.6181 30.7223 18.4695 30.8709 18.3209C31.2536 17.9382 31.6318 17.5599 32.0146 17.1772L35.2474 13.9444C36.0174 13.1744 36.7873 12.409 37.5527 11.639C37.7193 11.8327 37.8814 12.0353 38.0435 12.2334C38.1156 12.3279 38.1876 12.427 38.2596 12.5261C39.1196 13.7102 39.8536 14.9845 40.4389 16.3307C41.0513 17.8301 41.479 19.4015 41.7131 21.0044C41.8122 21.8239 41.8617 22.6434 41.8617 23.4718C41.8482 24.3048 41.7987 25.1288 41.6996 25.9483Z" fill="#2C9B7F"/>
</g>
<defs>
<clipPath id="clip0">
<rect width="45" height="45" fill="white"/>
</clipPath>
</defs>
</svg>
