<svg width="64" height="64" viewBox="0 0 64 64" fill="none" xmlns="http://www.w3.org/2000/svg">
<path d="M50.5084 23.8946C49.7666 23.4701 48.9364 23.145 48.1266 22.8731C46.4525 22.3093 44.6286 22.0041 42.8593 22.1434C40.457 22.3358 38.2657 23.3042 36.5372 24.9492C34.9039 26.5014 33.8763 28.5444 34.2234 30.793C34.3459 31.5691 34.6521 32.3651 35.1012 33.0549C34.5296 33.8509 34.026 34.6933 33.5837 35.5755C33.3046 36.1393 33.0529 36.7098 32.8215 37.2935C32.7874 37.0216 32.7534 36.7562 32.7126 36.4843C32.3043 33.4994 31.753 30.5343 30.9977 27.6158C32.1682 26.7933 33.1958 25.7187 34.026 24.5977C36.1084 21.8118 36.7005 18.3028 35.7614 14.9863C34.6725 11.1391 32.0116 7.79595 28.5001 5.76621C25.7372 4.16762 22.5591 3.37828 19.3742 3.10632C17.741 2.96703 16.0737 2.94713 14.4472 3.15275C14.3315 3.16602 14.2226 3.17929 14.1069 3.19919C13.4808 3.28542 13.1474 4.18089 13.4945 4.65848C13.6782 4.91717 13.8347 5.20239 13.9776 5.48099C14.0457 5.62028 14.1137 5.75294 14.1818 5.89224C14.2226 5.97184 14.2566 6.05144 14.2907 6.13103C14.2975 6.1443 14.3043 6.15757 14.3111 6.17083C14.3247 6.19736 14.3315 6.23053 14.3451 6.25706C14.5357 6.72138 14.7058 7.19234 14.8555 7.67655C15.0324 8.26027 15.1822 8.84399 15.3047 9.44097C15.3727 9.77263 15.434 10.1043 15.4816 10.4359C15.4816 10.4426 15.4952 10.5155 15.502 10.5752V10.5819V10.5885C15.5088 10.6416 15.5224 10.761 15.5292 10.7742C15.5565 10.9865 15.5769 11.1988 15.5973 11.411C15.7334 12.857 15.6721 14.3097 15.7742 15.7557C16.0941 20.0872 17.4755 25.0487 21.6812 27.2775C23.9474 28.4847 26.547 28.6373 29.0513 28.2923C29.6502 30.6139 30.1198 32.9621 30.4873 35.3301C30.5213 35.5357 30.5485 35.748 30.5825 35.9536C30.6029 36.0863 30.6166 36.2123 30.637 36.345C30.6438 36.3914 30.6506 36.4445 30.6574 36.4909C30.6574 36.4975 30.6574 36.5042 30.6574 36.5108C30.6574 36.5108 30.6574 36.5174 30.6574 36.5241C30.6574 36.5373 30.6642 36.5506 30.6642 36.5639C30.7254 37.0282 30.7867 37.4991 30.8411 37.9701C30.8888 38.3415 30.9296 38.7196 30.9704 39.0911C30.215 38.2421 29.3372 37.5058 28.3912 36.8491C27.9625 36.5506 27.5133 36.272 27.0574 36.0133C27.2071 34.1958 26.5266 32.259 25.0975 31.0849C23.5118 29.7914 21.2797 29.2077 19.2381 29.4332C17.4755 29.6256 15.8287 30.3088 14.42 31.3436C13.5761 31.9605 12.7935 32.6503 12.147 33.4728C11.8272 33.8841 12.0653 34.6137 12.5145 34.8326C13.9776 35.549 15.3727 36.5042 16.6589 37.4792C18.544 38.912 20.7829 40.4443 23.3145 39.8539C24.5258 39.5687 25.499 38.7992 26.2816 37.8839C26.4245 37.9701 26.5674 38.0497 26.7035 38.1359C27.0029 38.3217 27.3024 38.5206 27.5882 38.7263C27.6426 38.7661 27.7039 38.8125 27.7583 38.8523C27.7379 38.839 27.7243 38.8324 27.7175 38.8258C27.7515 38.8523 27.84 38.912 27.8672 38.9319C28.0101 39.0447 28.1462 39.1508 28.2823 39.2702C28.8336 39.7345 29.3167 40.2519 29.7863 40.7958C29.7795 40.7892 29.7727 40.7825 29.7727 40.7759C29.6978 40.6631 29.8952 40.9218 29.8067 40.8223C29.7999 40.8157 29.7931 40.8091 29.7863 40.8024C29.8135 40.8422 29.8408 40.8754 29.8748 40.9152C29.936 40.9948 29.9905 41.0744 30.0517 41.1606C30.1674 41.3265 30.2763 41.4923 30.3784 41.6648C30.4805 41.8372 30.5825 42.0163 30.671 42.1954C30.7186 42.2883 30.7595 42.3745 30.8071 42.4674C30.8139 42.4806 30.8207 42.5005 30.8275 42.5138C30.8275 42.5072 30.8207 42.5005 30.8207 42.4939C30.8207 42.5005 30.8343 42.5204 30.8479 42.5669V42.5735C31.0045 42.9582 31.1338 43.3562 31.2358 43.7608C31.2835 43.9731 31.3243 44.1787 31.3651 44.391C31.3651 44.3976 31.3651 44.4175 31.3719 44.4308C31.3719 44.4241 31.3719 44.4241 31.3719 44.4175C31.3719 44.4241 31.3719 44.4308 31.3719 44.4374V44.444C31.3719 44.444 31.3719 44.444 31.3719 44.4507V44.4573V44.4639C31.3719 44.4706 31.3719 44.4706 31.3719 44.4772V44.4838C31.3719 44.4905 31.3719 44.4905 31.3719 44.4905C31.3719 44.5037 31.3719 44.517 31.3719 44.5236C31.3856 44.6298 31.3924 44.7425 31.3992 44.8487C31.3992 44.8354 31.3992 44.8221 31.3992 44.8089C31.3992 44.8354 31.3992 44.8686 31.406 44.8951C31.406 44.8818 31.406 44.8686 31.406 44.8487C31.4468 45.7906 31.474 46.7325 31.4944 47.6744C31.5012 48.1321 31.5081 48.5897 31.5081 49.0474C29.9701 50.4802 28.4389 51.9129 26.9009 53.3457C24.2944 55.7734 21.6948 58.2012 19.0884 60.6289C18.4963 61.1861 17.9043 61.7366 17.3054 62.2872C16.6589 62.8908 17.1557 63.9853 18.0268 63.9853H43.4445C44.6218 63.9853 45.7992 64.0184 46.9697 63.9853C46.9901 63.9853 47.0037 63.9853 47.0173 63.9853C47.1194 63.9853 47.2147 63.972 47.3099 63.9388C47.4665 63.8924 47.6162 63.8128 47.7387 63.6934C47.7795 63.6536 47.8203 63.6072 47.8544 63.5607C47.8612 63.5541 47.8612 63.5475 47.868 63.5475C47.868 63.5475 47.868 63.5475 47.868 63.5408C47.9837 63.3816 48.0449 63.1893 48.0381 62.9903C48.0381 62.9571 48.0313 62.924 48.0313 62.8974C48.0313 62.8974 48.0313 62.8974 48.0313 62.8908C48.0109 62.6653 47.9156 62.453 47.7387 62.2872C46.1054 60.7616 44.4653 59.2359 42.8321 57.7103C40.2256 55.2826 37.626 52.8549 35.0196 50.4271C34.5228 49.9628 34.0328 49.5051 33.536 49.0474C33.5292 47.6876 33.4952 46.3278 33.4408 44.9747C33.4408 44.9482 33.4408 44.915 33.4339 44.8885C33.4339 44.8619 33.4339 44.8354 33.4339 44.8089C33.4339 44.8354 33.4408 44.8619 33.4408 44.8885C33.4135 44.5104 33.4271 44.1256 33.4476 43.7476C33.468 43.3164 33.502 42.8919 33.5564 42.4674C33.5632 42.4209 33.5701 42.3679 33.5701 42.3214C33.5701 42.3214 33.5701 42.3214 33.5701 42.3148C33.5701 42.3082 33.5701 42.3082 33.5701 42.3015C33.5701 42.2949 33.5701 42.2949 33.5701 42.2883C33.5701 42.2684 33.5769 42.2352 33.5769 42.2153V42.2087C33.5769 42.2087 33.5769 42.2087 33.5769 42.2153C33.5769 42.2286 33.5769 42.2485 33.5701 42.275C33.5905 42.149 33.6041 42.0229 33.6245 41.8969C33.6721 41.6051 33.7266 41.3198 33.7878 41.0346C33.9239 40.3779 34.1009 39.7212 34.305 39.0845C34.4139 38.7329 34.5364 38.388 34.6657 38.0497C34.727 37.8839 34.795 37.718 34.8631 37.5522C34.8835 37.5058 34.9175 37.4262 34.9311 37.393C34.9311 37.3864 34.9311 37.3864 34.9379 37.3864C34.9719 37.3134 35.006 37.2338 35.04 37.1542C35.3871 36.398 35.7818 35.6618 36.2309 34.952C36.3466 34.7729 36.4623 34.5872 36.5848 34.4147C37.7417 35.0979 39.0755 35.5357 40.4366 35.4097C41.9133 35.277 43.2131 34.5872 44.2952 33.6121C45.4113 32.6039 46.1666 31.3436 46.9901 30.1098C47.4324 29.4399 47.902 28.7832 48.3852 28.1398C48.4941 28.0005 48.6029 27.8546 48.7118 27.7153C48.7527 27.6688 48.7867 27.6158 48.8275 27.5693C48.8275 27.5627 48.8343 27.5627 48.8343 27.5561C48.8411 27.5428 48.8547 27.5362 48.8615 27.5229C48.8683 27.5163 48.8683 27.5096 48.8751 27.5096C48.8751 27.5096 48.8751 27.5096 48.8751 27.503C48.882 27.4964 48.882 27.4964 48.8888 27.4897C49.0725 27.2642 49.2562 27.0387 49.4468 26.8132C49.8415 26.3488 50.243 25.8779 50.6854 25.4534C51.1821 25.0089 51.0664 24.2196 50.5084 23.8946ZM30.0177 25.8381C30.0109 25.8447 30.0109 25.8447 30.0177 25.8381C30.0109 25.8447 30.0109 25.8447 30.0109 25.8447C30.0041 25.8514 29.9973 25.8514 29.9905 25.858C29.9837 25.8646 29.9769 25.8713 29.9701 25.8713C29.936 25.8978 29.9224 25.9111 29.9156 25.9111L29.9224 25.9044C29.7591 26.0238 29.5958 26.1299 29.4256 26.2427C29.3031 26.2692 29.1738 26.2891 29.0445 26.309C28.9901 26.3157 28.9425 26.3289 28.888 26.3356C28.8336 26.1432 28.7791 25.9575 28.7179 25.7651C28.3504 24.5446 27.9489 23.3308 27.4929 22.1368C27.2956 21.6128 27.0914 21.0888 26.8736 20.5714C26.8192 20.4453 26.7716 20.3193 26.7171 20.1933C26.6899 20.1336 26.6695 20.0805 26.6423 20.0208C26.6355 20.0142 26.6355 20.0009 26.6355 19.9943C26.6355 19.9943 26.6355 19.9943 26.6355 19.9877V19.981C26.6355 19.981 26.6355 19.981 26.6355 19.9744C26.6355 19.9744 26.6355 19.9744 26.6355 19.9678C26.5402 19.7422 26.4381 19.5233 26.336 19.2978C25.744 17.9911 25.0839 16.7109 24.3285 15.4904C24.0631 15.0659 23.7977 14.6413 23.4914 14.25C23.2668 13.9648 23.4506 13.5071 23.7364 13.3413C24.0835 13.1423 24.4442 13.2948 24.6687 13.58C24.6755 13.5867 24.6823 13.5933 24.6823 13.5999C25.0634 14.0974 25.3969 14.6347 25.7168 15.172C26.5198 16.5185 27.2139 17.9314 27.84 19.3708C28.7451 21.4469 29.5005 23.5762 30.1402 25.7452C30.0926 25.7784 30.0517 25.8116 30.0177 25.8381ZM25.0158 36.1128C25.0158 36.1394 25.009 36.1659 25.0022 36.1924C24.9954 36.2322 24.9886 36.272 24.9818 36.3118C24.9818 36.3184 24.9818 36.3317 24.975 36.3383C24.8865 36.4577 24.7912 36.5705 24.6892 36.6899C24.519 36.6103 24.3421 36.5307 24.172 36.4577C24.0971 36.4246 24.0222 36.3914 23.9406 36.3582C23.9338 36.3582 23.9338 36.3582 23.927 36.3516H23.9202C23.9202 36.3516 23.9202 36.3516 23.9133 36.3516C23.9065 36.3516 23.8997 36.345 23.8997 36.345C23.8997 36.345 23.8997 36.345 23.8929 36.345C23.8657 36.3317 23.8317 36.3184 23.8045 36.3118C23.6684 36.2587 23.5323 36.2057 23.3961 36.1526C22.0555 35.6419 20.6604 35.1974 19.2381 34.9454C18.8774 34.8791 18.6733 34.4479 18.7617 34.1295C18.8638 33.7647 19.2381 33.5989 19.5988 33.6652C20.1364 33.7647 20.674 33.8973 21.198 34.0433C22.4978 34.3948 23.7909 34.8393 25.0294 35.3898C25.0294 35.4163 25.0294 35.4429 25.0294 35.4694C25.0498 35.6817 25.0362 35.8939 25.0158 36.1128ZM43.1927 28.1464C41.0559 29.3205 39.13 30.8129 37.5443 32.6437C37.3946 32.5508 37.2449 32.458 37.102 32.3518C37.0884 32.3319 37.0612 32.3054 37.0271 32.2656C37.0271 32.2656 37.0271 32.2722 37.0339 32.2722C37.0271 32.2656 37.0203 32.2523 37.0135 32.2457C37.0203 32.2523 37.0271 32.259 37.0271 32.2656C37.0271 32.259 37.0203 32.2523 37.0135 32.2523C36.9591 32.1727 36.9046 32.0931 36.8502 32.0135C36.7753 31.8941 36.7073 31.7747 36.6392 31.6487C38.2861 29.7782 40.2801 28.2128 42.4986 26.9923C43.2744 26.581 43.9549 27.7219 43.1927 28.1464Z" fill="#2C9B7F"/>
</svg>
