<svg width="46" height="46" viewBox="0 0 46 46" fill="none" xmlns="http://www.w3.org/2000/svg">
<path d="M36.3029 17.1742C35.7698 16.8691 35.173 16.6355 34.591 16.44C33.3877 16.0348 32.0768 15.8155 30.8051 15.9156C29.0785 16.0538 27.5035 16.7499 26.2611 17.9323C25.0872 19.0479 24.3486 20.5163 24.598 22.1325C24.6861 22.6903 24.9062 23.2624 25.229 23.7582C24.8182 24.3303 24.4562 24.9358 24.1383 25.5699C23.9377 25.9752 23.7567 26.3852 23.5904 26.8047C23.566 26.6092 23.5415 26.4185 23.5122 26.2231C23.2187 24.0777 22.8225 21.9466 22.2796 19.8488C23.1209 19.2577 23.8595 18.4853 24.4562 17.6796C25.9529 15.6772 26.3785 13.1552 25.7035 10.7714C24.9209 8.00619 23.0084 5.60334 20.4845 4.14446C18.4986 2.99548 16.2144 2.42814 13.9252 2.23267C12.7513 2.13255 11.5529 2.11825 10.3839 2.26604C10.3008 2.27558 10.2225 2.28511 10.1394 2.29942C9.68936 2.36139 9.44968 3.00502 9.69914 3.34828C9.8312 3.53422 9.9437 3.73922 10.0464 3.93946C10.0953 4.03958 10.1442 4.13493 10.1932 4.23505C10.2225 4.29226 10.247 4.34947 10.2714 4.40668C10.2763 4.41621 10.2812 4.42575 10.2861 4.43529C10.2959 4.45436 10.3008 4.47819 10.3106 4.49726C10.4475 4.83099 10.5698 5.16949 10.6774 5.51752C10.8046 5.93707 10.9122 6.35662 11.0002 6.7857C11.0491 7.02408 11.0932 7.26245 11.1274 7.50083C11.1274 7.5056 11.1372 7.55804 11.1421 7.60095V7.60572V7.61049C11.147 7.64863 11.1567 7.73444 11.1616 7.74398C11.1812 7.89654 11.1959 8.0491 11.2105 8.20166C11.3084 9.24099 11.2644 10.2851 11.3377 11.3244C11.5676 14.4376 12.5605 18.0038 15.5834 19.6057C17.2122 20.4734 19.0807 20.583 20.8807 20.3351C21.3111 22.0038 21.6486 23.6915 21.9127 25.3935C21.9372 25.5413 21.9567 25.6939 21.9812 25.8417C21.9959 25.937 22.0057 26.0276 22.0203 26.123C22.0252 26.1563 22.0301 26.1945 22.035 26.2278C22.035 26.2326 22.035 26.2374 22.035 26.2421C22.035 26.2421 22.035 26.2469 22.035 26.2517C22.035 26.2612 22.0399 26.2707 22.0399 26.2803C22.0839 26.614 22.1279 26.9525 22.1671 27.291C22.2013 27.558 22.2307 27.8297 22.26 28.0967C21.7171 27.4865 21.0861 26.9573 20.4062 26.4853C20.098 26.2707 19.7752 26.0705 19.4475 25.8846C19.5551 24.5783 19.066 23.1861 18.0388 22.3423C16.8991 21.4126 15.2948 20.993 13.8274 21.1551C12.5605 21.2934 11.3769 21.7845 10.3644 22.5282C9.75783 22.9716 9.19533 23.4674 8.73066 24.0586C8.50077 24.3542 8.67196 24.8786 8.99479 25.0359C10.0464 25.5508 11.0491 26.2374 11.9736 26.9382C13.3285 27.968 14.9377 29.0693 16.7573 28.645C17.6279 28.44 18.3274 27.887 18.8899 27.229C18.9926 27.291 19.0953 27.3482 19.1932 27.4102C19.4084 27.5437 19.6236 27.6867 19.829 27.8345C19.8682 27.8631 19.9122 27.8965 19.9513 27.9251C19.9366 27.9156 19.9268 27.9108 19.922 27.906C19.9464 27.9251 20.01 27.968 20.0296 27.9823C20.1323 28.0634 20.2301 28.1396 20.3279 28.2254C20.7241 28.5592 21.0714 28.931 21.4089 29.322C21.404 29.3172 21.3991 29.3125 21.3991 29.3077C21.3453 29.2266 21.4872 29.4126 21.4236 29.3411C21.4187 29.3363 21.4138 29.3315 21.4089 29.3268C21.4285 29.3554 21.448 29.3792 21.4725 29.4078C21.5165 29.465 21.5557 29.5222 21.5997 29.5842C21.6828 29.7034 21.7611 29.8226 21.8345 29.9465C21.9078 30.0705 21.9812 30.1992 22.0448 30.3279C22.079 30.3947 22.1084 30.4567 22.1426 30.5234C22.1475 30.5329 22.1524 30.5473 22.1573 30.5568C22.1573 30.552 22.1524 30.5473 22.1524 30.5425C22.1524 30.5473 22.1622 30.5616 22.172 30.5949V30.5997C22.2845 30.8762 22.3774 31.1623 22.4508 31.4531C22.485 31.6057 22.5143 31.7534 22.5437 31.906C22.5437 31.9108 22.5437 31.9251 22.5486 31.9346C22.5486 31.9298 22.5486 31.9298 22.5486 31.9251C22.5486 31.9298 22.5486 31.9346 22.5486 31.9394V31.9441C22.5486 31.9441 22.5486 31.9442 22.5486 31.9489V31.9537V31.9585C22.5486 31.9632 22.5486 31.9632 22.5486 31.968V31.9728C22.5486 31.9775 22.5486 31.9775 22.5486 31.9775C22.5486 31.9871 22.5486 31.9966 22.5486 32.0014C22.5584 32.0776 22.5633 32.1587 22.5682 32.235C22.5682 32.2254 22.5682 32.2159 22.5682 32.2064C22.5682 32.2254 22.5682 32.2493 22.573 32.2683C22.573 32.2588 22.573 32.2493 22.573 32.235C22.6024 32.912 22.622 33.589 22.6366 34.266C22.6415 34.5949 22.6464 34.9239 22.6464 35.2528C21.541 36.2826 20.4404 37.3124 19.335 38.3422C17.4616 40.0872 15.5932 41.8321 13.7198 43.577C13.2942 43.9775 12.8687 44.3732 12.4383 44.7689C11.9736 45.2028 12.3307 45.9894 12.9567 45.9894H31.2258C32.0719 45.9894 32.9181 46.0132 33.7594 45.9894C33.7741 45.9894 33.7839 45.9894 33.7937 45.9894C33.8671 45.9894 33.9355 45.9799 34.004 45.956C34.1165 45.9227 34.2241 45.8654 34.3122 45.7796C34.3415 45.751 34.3709 45.7177 34.3953 45.6843C34.4002 45.6795 34.4002 45.6747 34.4051 45.6747C34.4051 45.6747 34.4051 45.6747 34.4051 45.67C34.4883 45.5556 34.5323 45.4173 34.5274 45.2743C34.5274 45.2504 34.5225 45.2266 34.5225 45.2075C34.5225 45.2075 34.5225 45.2075 34.5225 45.2028C34.5078 45.0407 34.4393 44.8881 34.3122 44.7689C33.1383 43.6724 31.9594 42.5758 30.7855 41.4793C28.9122 39.7344 27.0437 37.9894 25.1703 36.2445C24.8133 35.9108 24.4611 35.5818 24.104 35.2528C24.0991 34.2755 24.0747 33.2981 24.0355 32.3256C24.0355 32.3065 24.0355 32.2826 24.0307 32.2636C24.0307 32.2445 24.0307 32.2254 24.0307 32.2064C24.0307 32.2254 24.0355 32.2445 24.0355 32.2636C24.016 31.9918 24.0258 31.7153 24.0404 31.4436C24.0551 31.1337 24.0796 30.8285 24.1187 30.5234C24.1236 30.49 24.1285 30.4519 24.1285 30.4185C24.1285 30.4185 24.1285 30.4185 24.1285 30.4138C24.1285 30.409 24.1285 30.409 24.1285 30.4042C24.1285 30.3995 24.1285 30.3995 24.1285 30.3947C24.1285 30.3804 24.1334 30.3566 24.1334 30.3422V30.3375C24.1334 30.3375 24.1334 30.3375 24.1334 30.3422C24.1334 30.3518 24.1334 30.3661 24.1285 30.3852C24.1432 30.2946 24.1529 30.204 24.1676 30.1134C24.2018 29.9036 24.241 29.6986 24.285 29.4936C24.3828 29.0216 24.51 28.5496 24.6567 28.092C24.735 27.8393 24.823 27.5914 24.916 27.3482C24.96 27.229 25.0089 27.1098 25.0578 26.9906C25.0725 26.9573 25.097 26.9001 25.1067 26.8762C25.1067 26.8715 25.1067 26.8715 25.1116 26.8715C25.1361 26.819 25.1605 26.7618 25.185 26.7046C25.4345 26.1611 25.7181 25.6319 26.041 25.1218C26.1241 24.993 26.2073 24.8595 26.2953 24.7356C27.1268 25.2266 28.0855 25.5413 29.0638 25.4507C30.1252 25.3554 31.0594 24.8595 31.8372 24.1587C32.6393 23.434 33.1823 22.5282 33.7741 21.6414C34.0921 21.1599 34.4296 20.6879 34.7768 20.2255C34.8551 20.1254 34.9334 20.0205 35.0116 19.9203C35.041 19.887 35.0654 19.8488 35.0948 19.8155C35.0948 19.8107 35.0997 19.8107 35.0997 19.8059C35.1046 19.7964 35.1143 19.7916 35.1192 19.7821C35.1241 19.7773 35.1241 19.7726 35.129 19.7726C35.129 19.7726 35.129 19.7726 35.129 19.7678C35.1339 19.763 35.1339 19.763 35.1388 19.7582C35.2709 19.5962 35.4029 19.4341 35.5399 19.272C35.8236 18.9382 36.1122 18.5997 36.4301 18.2946C36.7872 17.9752 36.704 17.4078 36.3029 17.1742ZM21.5752 18.5711C21.5703 18.5759 21.5703 18.5759 21.5752 18.5711C21.5703 18.5759 21.5703 18.5759 21.5703 18.5759C21.5654 18.5807 21.5605 18.5807 21.5557 18.5854C21.5508 18.5902 21.5459 18.595 21.541 18.595C21.5165 18.614 21.5067 18.6236 21.5018 18.6236L21.5067 18.6188C21.3893 18.7046 21.272 18.7809 21.1497 18.8619C21.0616 18.881 20.9687 18.8953 20.8758 18.9096C20.8366 18.9144 20.8024 18.9239 20.7633 18.9287C20.7241 18.7904 20.685 18.6569 20.641 18.5187C20.3768 17.6414 20.0883 16.769 19.7605 15.9108C19.6187 15.5342 19.472 15.1575 19.3154 14.7857C19.2763 14.6951 19.2421 14.6045 19.2029 14.5139C19.1834 14.471 19.1687 14.4329 19.1491 14.39C19.1442 14.3852 19.1442 14.3757 19.1442 14.3709C19.1442 14.3709 19.1442 14.3709 19.1442 14.3661V14.3614C19.1442 14.3614 19.1442 14.3614 19.1442 14.3566C19.1442 14.3566 19.1442 14.3566 19.1442 14.3518C19.0758 14.1897 19.0024 14.0324 18.929 13.8703C18.5035 12.9311 18.029 12.011 17.4861 11.1337C17.2953 10.8286 17.1046 10.5235 16.8845 10.2422C16.723 10.0372 16.8551 9.70822 17.0605 9.58903C17.31 9.446 17.5692 9.55565 17.7307 9.76066C17.7355 9.76543 17.7404 9.77019 17.7404 9.77496C18.0144 10.1325 18.254 10.5187 18.4839 10.9049C19.0611 11.8727 19.56 12.8882 20.01 13.9227C20.6605 15.415 21.2035 16.9454 21.6633 18.5044C21.629 18.5282 21.5997 18.5521 21.5752 18.5711ZM17.9801 25.9561C17.9801 25.9752 17.9752 25.9942 17.9703 26.0133C17.9654 26.0419 17.9605 26.0705 17.9557 26.0991C17.9557 26.1039 17.9557 26.1134 17.9508 26.1182C17.8872 26.204 17.8187 26.285 17.7453 26.3709C17.623 26.3137 17.4959 26.2564 17.3736 26.204C17.3198 26.1802 17.266 26.1563 17.2073 26.1325C17.2024 26.1325 17.2024 26.1325 17.1975 26.1277H17.1926C17.1926 26.1277 17.1926 26.1277 17.1877 26.1277C17.1828 26.1277 17.1779 26.123 17.1779 26.123C17.1779 26.123 17.1779 26.123 17.173 26.123C17.1535 26.1134 17.129 26.1039 17.1095 26.0991C17.0116 26.061 16.9138 26.0228 16.816 25.9847C15.8524 25.6176 14.8497 25.2982 13.8274 25.117C13.5682 25.0693 13.4214 24.7594 13.485 24.5306C13.5584 24.2684 13.8274 24.1492 14.0866 24.1969C14.473 24.2684 14.8595 24.3637 15.2361 24.4686C16.1703 24.7213 17.0997 25.0407 17.9899 25.4364C17.9899 25.4555 17.9899 25.4746 17.9899 25.4936C18.0046 25.6462 17.9948 25.7988 17.9801 25.9561ZM31.0448 20.2302C29.5089 21.0741 28.1247 22.1468 26.985 23.4626C26.8774 23.3959 26.7698 23.3292 26.6671 23.2529C26.6573 23.2386 26.6377 23.2195 26.6133 23.1909C26.6133 23.1909 26.6133 23.1957 26.6181 23.1957C26.6133 23.1909 26.6084 23.1814 26.6035 23.1766C26.6084 23.1814 26.6133 23.1861 26.6133 23.1909C26.6133 23.1861 26.6084 23.1814 26.6035 23.1814C26.5643 23.1242 26.5252 23.0669 26.4861 23.0097C26.4323 22.9239 26.3834 22.8381 26.3345 22.7475C27.5181 21.4031 28.9513 20.2779 30.5459 19.4007C31.1035 19.1051 31.5926 19.9251 31.0448 20.2302Z" fill="#2C9B7F"/>
</svg>
