<svg width="40" height="40" viewBox="0 0 40 40" fill="none" xmlns="http://www.w3.org/2000/svg">
<path d="M26.666 6.80694C25.1124 4.70035 23.2691 2.80443 21.2503 1.1411C20.8114 0.776834 20.3682 0.421347 19.903 0.0921926C19.723 -0.0350804 19.4202 -0.026303 19.2403 0.0921926C17.7788 1.06649 16.4315 2.25583 15.1939 3.49346C12.7537 5.92481 10.6076 8.83015 9.607 12.1612C9.05402 14.0088 8.88725 15.975 9.2559 17.8753C9.62456 19.7976 10.5637 21.5926 11.8979 23.0233C14.6409 25.9637 18.9945 27.096 22.8258 25.8408C26.5563 24.6164 29.4177 21.3073 29.9795 17.4057C30.0541 16.8835 30.098 16.3612 30.1024 15.8346V15.8258C30.0804 12.5211 28.5882 9.41824 26.666 6.80694ZM19.5694 21.5443C18.8672 21.5399 18.1519 21.4258 17.4935 21.1756C15.1192 20.2847 13.5174 18.0201 13.5042 15.4747C13.5042 15.106 13.807 14.8339 14.1625 14.8164C14.518 14.7988 14.8208 15.1324 14.8208 15.4747C14.8208 15.6371 14.8296 15.7994 14.8428 15.9618C14.8471 15.9925 14.8647 16.1374 14.8603 16.1286C14.8691 16.1857 14.8779 16.2383 14.8866 16.2954C14.9437 16.5938 15.0227 16.8878 15.128 17.1775C15.1412 17.2126 15.1544 17.2521 15.1675 17.2872C15.1675 17.2872 15.1675 17.2872 15.1675 17.2916V17.296C15.1675 17.296 15.1675 17.3004 15.1719 17.3048C15.1719 17.3048 15.1719 17.3048 15.1719 17.3092V17.3136C15.1719 17.3136 15.1719 17.3136 15.1719 17.3179C15.1719 17.3179 15.1719 17.3223 15.1763 17.3223C15.1763 17.3267 15.1807 17.3311 15.1807 17.3355C15.1851 17.3399 15.1851 17.3443 15.1851 17.3443C15.2026 17.3794 15.2158 17.4145 15.2334 17.4496C15.286 17.5637 15.3431 17.6734 15.4045 17.7831C15.4703 17.9016 15.5406 18.0157 15.6152 18.1255C15.6459 18.1737 15.681 18.222 15.7117 18.2659C15.7249 18.2879 15.7819 18.3625 15.7907 18.3712C15.9399 18.56 16.1067 18.7443 16.2823 18.9111C16.3788 19.0032 16.4797 19.091 16.5807 19.1788C16.5939 19.1875 16.6421 19.227 16.6685 19.249C16.6685 19.249 16.6685 19.249 16.6729 19.249C16.6729 19.249 16.6729 19.249 16.6772 19.2534C16.6772 19.2534 16.6772 19.2534 16.6816 19.2578C16.6904 19.2621 16.6948 19.2709 16.6992 19.2709C16.7299 19.2929 16.7606 19.3148 16.7913 19.3368C17.002 19.486 17.2258 19.6176 17.4584 19.7361C17.5199 19.7669 17.5813 19.7976 17.6428 19.8239C17.6691 19.8371 17.691 19.8458 17.7174 19.859C17.7174 19.859 17.7174 19.859 17.7218 19.859H17.7261C17.8446 19.9073 17.9631 19.9468 18.0816 19.9863C18.3362 20.0653 18.5951 20.1311 18.8584 20.175C18.8672 20.175 18.9155 20.1838 18.9374 20.1882H18.9418C18.9462 20.1882 18.9506 20.1882 18.9506 20.1882C19.0208 20.1969 19.091 20.2013 19.1613 20.2057C19.2929 20.2145 19.4246 20.2189 19.5606 20.2189C19.9293 20.2233 20.2014 20.5173 20.2189 20.8772C20.2453 21.2371 19.9161 21.5443 19.5694 21.5443Z" fill="#2C9B7F"/>
<path d="M39.1387 24.0765C39.1299 23.133 39.1387 22.1938 39.1168 21.2502C39.1124 21.0352 39.0729 20.8201 39.0509 20.6094C38.9895 20.0872 38.9281 19.5693 38.8622 19.0471C38.7613 18.222 38.6647 17.3925 38.5638 16.5674C38.5155 16.1549 38.3356 15.7906 37.9933 15.5449C37.6334 15.2859 37.1945 15.2552 36.7644 15.321C35.8735 15.4527 35.3425 16.326 35.2722 17.1643C35.2284 17.6866 35.2898 18.2176 35.3249 18.7398C35.36 19.2533 35.3951 19.7668 35.4302 20.2803C35.4522 20.5875 35.36 20.8815 35.2898 21.18C35.1669 21.7154 35.0396 22.2464 34.9168 22.7819C34.9036 22.8345 34.8948 22.8828 34.8817 22.9355C34.4823 22.9223 34.1005 23.0276 33.7757 23.2778C33.6484 23.3743 33.5431 23.4928 33.4334 23.6069C33.0735 23.9932 32.7136 24.3794 32.3537 24.7656C31.7218 25.4458 31.1205 26.2138 30.2735 26.6264C29.4177 27.0433 28.5356 27.4295 27.7061 27.8903C26.2973 28.6759 25.1562 30.2822 25.1913 31.9455C25.2133 32.8364 25.2572 33.7317 25.2923 34.6226H25.108C24.8227 34.6226 24.5023 34.5831 24.2214 34.6446C23.8133 34.728 23.5631 35.0966 23.5543 35.496C23.5236 36.6458 23.5587 37.8001 23.5587 38.9543C23.5587 39.4985 23.8967 39.9067 24.4628 39.9111C24.7656 39.9155 25.0685 39.9111 25.3713 39.9111C26.6747 39.9111 27.9738 39.9067 29.2772 39.9067C30.6641 39.9067 32.0553 39.9023 33.4421 39.9023C33.8635 39.9023 34.2848 39.9023 34.7017 39.9023C35.1274 39.9023 35.5531 39.8496 35.7506 39.3976C35.834 39.2045 35.8252 39.007 35.8252 38.8007C35.8252 38.5154 35.8252 38.2302 35.8252 37.9449C35.8252 37.2515 35.8252 36.5581 35.8208 35.8647C35.8208 35.7374 35.8208 35.6101 35.8208 35.4872V35.4653C35.8208 35.4565 35.8208 35.4433 35.8165 35.4346C35.7813 34.965 35.4259 34.6314 34.9563 34.6183C34.6534 34.6095 34.3506 34.6183 34.0478 34.6183H33.903C33.9249 34.2759 33.9469 33.9336 33.9688 33.5869C33.9995 33.1129 33.9776 32.5819 34.1487 32.1342C34.3023 31.7261 34.6052 31.4408 34.9036 31.1424C35.2723 30.7693 35.6453 30.3963 36.0139 30.0189C36.3958 29.6327 36.7732 29.2508 37.155 28.8646C37.4183 28.6013 37.6904 28.338 37.923 28.0439C38.5155 27.3023 38.9193 26.4157 39.0641 25.4722C39.1431 25.0069 39.1387 24.5461 39.1387 24.0765Z" fill="#2C9B7F"/>
<path d="M15.308 39.6829C15.0359 39.9374 14.6935 39.9111 14.3512 39.9111C13.8992 39.9111 13.4471 39.9111 12.9907 39.9111C11.5819 39.9111 10.1732 39.9067 8.75999 39.9067C7.49603 39.9067 6.22769 39.9023 4.96374 39.9023C4.70041 39.9023 4.43709 39.9111 4.17377 39.9023C3.84022 39.8936 3.54179 39.7312 3.39257 39.424C3.30041 39.2309 3.3048 39.0334 3.30919 38.8271C3.30919 37.7124 3.31358 36.5976 3.31358 35.4873V35.4653C3.31358 35.4566 3.31358 35.4434 3.31796 35.4346C3.35307 34.9694 3.70417 34.6359 4.17377 34.6183C4.52486 34.6051 4.88035 34.6051 5.23145 34.6095C5.22706 34.5569 5.22706 34.5042 5.22267 34.4515C5.18756 33.9205 5.15684 33.3939 5.12173 32.8628C5.08662 32.3142 4.91985 31.8402 4.52925 31.4409C3.86217 30.7606 3.19069 30.0891 2.51922 29.4089C1.7468 28.6277 0.948052 27.8904 0.487235 26.8678C0.158081 26.1305 -0.00430211 25.3449 8.66196e-05 24.5374C8.66196e-05 24.1336 0.00447555 23.7343 0.00886427 23.3305C0.013253 22.7775 0.0176415 22.2289 0.0220303 21.676C0.0220303 21.4697 0.0176416 21.259 0.0395852 21.0571C0.144915 20.1048 0.267799 19.1568 0.381906 18.2089C0.43896 17.748 0.491624 17.2872 0.548677 16.8264C0.605731 16.3436 0.693506 15.896 1.10605 15.5756C1.77752 15.0534 2.81326 15.2552 3.34869 15.8697C3.91044 16.5148 3.91044 17.3311 3.86217 18.1386C3.83145 18.6214 3.79634 19.1042 3.76123 19.5869C3.73928 19.9292 3.66028 20.3154 3.73489 20.6534C3.90166 21.417 4.09038 22.1763 4.26593 22.9355C4.73113 22.918 5.17878 23.0716 5.5211 23.4051C5.61766 23.5017 5.70982 23.6026 5.80198 23.7035C6.22769 24.16 6.6534 24.6208 7.0791 25.0772C7.34243 25.3581 7.59697 25.6521 7.87346 25.9199C8.26406 26.2973 8.6766 26.5343 9.15497 26.7669C9.67284 27.0214 10.1863 27.2716 10.7042 27.5261C11.1475 27.7412 11.5907 27.9518 11.9857 28.2503C13.1882 29.15 14.0089 30.6114 13.9475 32.1343C13.9167 32.9638 13.8816 33.7976 13.8509 34.6271C13.9036 34.6271 13.9606 34.6271 14.0133 34.6271C14.2986 34.6271 14.6058 34.592 14.891 34.6446C15.3124 34.7192 15.5757 35.0835 15.5888 35.5004C15.5932 35.6892 15.5888 35.8779 15.5888 36.0666C15.5888 36.7776 15.5888 37.4885 15.5845 38.1995C15.5801 38.6647 15.6898 39.3274 15.308 39.6829Z" fill="#2C9B7F"/>
</svg>
