<svg width="54" height="55" viewBox="0 0 54 55" fill="none" xmlns="http://www.w3.org/2000/svg">
<path d="M36.7457 9.37994C34.6048 6.47707 32.0648 3.86449 29.2829 1.57243C28.6781 1.07047 28.0673 0.580614 27.4262 0.127041C27.1783 -0.0483407 26.761 -0.0362454 26.5131 0.127041C24.4992 1.46962 22.6426 3.10853 20.9371 4.81397C17.5746 8.16436 14.6173 12.1679 13.2385 16.7581C12.4765 19.3041 12.2467 22.0135 12.7547 24.6321C13.2627 27.281 14.5569 29.7545 16.3953 31.726C20.1751 35.7779 26.1744 37.3382 31.454 35.6086C36.5945 33.9213 40.5375 29.3614 41.3116 23.985C41.4145 23.2653 41.4749 22.5457 41.481 21.8199V21.8078C41.4507 17.254 39.3945 12.9783 36.7457 9.37994ZM26.9666 29.6879C25.999 29.6819 25.0132 29.5246 24.1061 29.1799C20.8343 27.9523 18.6269 24.8317 18.6088 21.324C18.6088 20.816 19.0261 20.4411 19.5159 20.4169C20.0058 20.3927 20.4231 20.8523 20.4231 21.324C20.4231 21.5478 20.4352 21.7716 20.4533 21.9953C20.4594 22.0377 20.4836 22.2372 20.4775 22.2251C20.4896 22.3038 20.5017 22.3763 20.5138 22.4549C20.5924 22.8662 20.7013 23.2714 20.8464 23.6705C20.8646 23.7189 20.8827 23.7733 20.9008 23.8217C20.9008 23.8217 20.9008 23.8217 20.9008 23.8278V23.8338C20.9008 23.8338 20.9008 23.8399 20.9069 23.8459C20.9069 23.8459 20.9069 23.8459 20.9069 23.852V23.858C20.9069 23.858 20.9069 23.858 20.9069 23.864C20.9069 23.864 20.9069 23.8701 20.9129 23.8701C20.9129 23.8761 20.919 23.8822 20.919 23.8882C20.925 23.8943 20.925 23.9003 20.925 23.9003C20.9492 23.9487 20.9674 23.9971 20.9916 24.0455C21.0641 24.2027 21.1427 24.3539 21.2274 24.5051C21.3181 24.6684 21.4149 24.8256 21.5177 24.9768C21.56 25.0433 21.6084 25.1099 21.6508 25.1703C21.6689 25.2006 21.7475 25.3034 21.7596 25.3155C21.9652 25.5755 22.195 25.8295 22.4369 26.0593C22.57 26.1863 22.7091 26.3073 22.8482 26.4282C22.8663 26.4403 22.9329 26.4948 22.9691 26.525C22.9691 26.525 22.9691 26.525 22.9752 26.525C22.9752 26.525 22.9752 26.525 22.9812 26.5311C22.9812 26.5311 22.9812 26.5311 22.9873 26.5371C22.9994 26.5432 23.0054 26.5552 23.0115 26.5552C23.0538 26.5855 23.0961 26.6157 23.1385 26.646C23.4288 26.8516 23.7372 27.033 24.0577 27.1963C24.1424 27.2386 24.227 27.281 24.3117 27.3173C24.348 27.3354 24.3782 27.3475 24.4145 27.3656C24.4145 27.3656 24.4145 27.3656 24.4206 27.3656H24.4266C24.5899 27.4322 24.7532 27.4866 24.9165 27.541C25.2672 27.6499 25.6241 27.7406 25.9869 27.8011C25.999 27.8011 26.0655 27.8132 26.0958 27.8192H26.1018C26.1079 27.8192 26.1139 27.8192 26.1139 27.8192C26.2107 27.8313 26.3074 27.8373 26.4042 27.8434C26.5856 27.8555 26.7671 27.8615 26.9545 27.8615C27.4625 27.8676 27.8375 28.2728 27.8617 28.7687C27.898 29.2646 27.4444 29.6879 26.9666 29.6879Z" fill="#2C9B7F"/>
<path d="M53.933 33.1774C53.9209 31.8772 53.933 30.583 53.9027 29.2827C53.8967 28.9864 53.8423 28.6901 53.812 28.3998C53.7274 27.6801 53.6427 26.9665 53.552 26.2468C53.4129 25.1098 53.2798 23.9668 53.1407 22.8299C53.0742 22.2614 52.8263 21.7595 52.3545 21.4208C51.8586 21.064 51.2539 21.0216 50.6612 21.1124C49.4335 21.2938 48.7018 22.4973 48.605 23.6524C48.5445 24.372 48.6292 25.1038 48.6776 25.8235C48.726 26.531 48.7743 27.2386 48.8227 27.9462C48.853 28.3695 48.726 28.7747 48.6292 29.186C48.4599 29.9238 48.2845 30.6555 48.1151 31.3933C48.097 31.4659 48.0849 31.5324 48.0668 31.605C47.5164 31.5869 46.9903 31.732 46.5428 32.0767C46.3674 32.2098 46.2222 32.3731 46.071 32.5303C45.5751 33.0625 45.0792 33.5947 44.5833 34.1269C43.7125 35.0643 42.8839 36.1226 41.7167 36.6911C40.5375 37.2656 39.3219 37.7978 38.1789 38.4328C36.2376 39.5153 34.6652 41.7288 34.7136 44.0208C34.7438 45.2485 34.8043 46.4822 34.8527 47.7099H34.5987C34.2056 47.7099 33.7641 47.6555 33.377 47.7401C32.8146 47.855 32.4699 48.363 32.4578 48.9134C32.4155 50.4979 32.4638 52.0884 32.4638 53.6789C32.4638 54.4288 32.9295 54.9913 33.7097 54.9973C34.1269 55.0034 34.5442 54.9973 34.9615 54.9973C36.7577 54.9973 38.5478 54.9913 40.3439 54.9913C42.255 54.9913 44.1721 54.9852 46.0831 54.9852C46.6637 54.9852 47.2443 54.9852 47.8188 54.9852C48.4054 54.9852 48.9921 54.9126 49.2642 54.2897C49.3791 54.0236 49.367 53.7515 49.367 53.4673C49.367 53.0742 49.367 52.6811 49.367 52.288C49.367 51.3324 49.367 50.3769 49.361 49.4214C49.361 49.246 49.361 49.0706 49.361 48.9013V48.871C49.361 48.8589 49.361 48.8408 49.3549 48.8287C49.3065 48.1816 48.8167 47.722 48.1696 47.7038C47.7523 47.6917 47.335 47.7038 46.9177 47.7038H46.7181C46.7484 47.2321 46.7786 46.7604 46.8089 46.2826C46.8512 45.6295 46.821 44.8977 47.0568 44.2809C47.2685 43.7184 47.6858 43.3254 48.097 42.9141C48.605 42.4001 49.1191 41.886 49.6271 41.3659C50.1532 40.8337 50.6733 40.3076 51.1994 39.7754C51.5623 39.4125 51.9373 39.0497 52.2578 38.6445C53.0742 37.6224 53.6306 36.4008 53.8302 35.1006C53.939 34.4595 53.933 33.8245 53.933 33.1774Z" fill="#2C9B7F"/>
<path d="M21.0943 54.6828C20.7193 55.0336 20.2476 54.9973 19.7759 54.9973C19.153 54.9973 18.5301 54.9973 17.9011 54.9973C15.9599 54.9973 14.0186 54.9912 12.0712 54.9912C10.3295 54.9912 8.58173 54.9852 6.84001 54.9852C6.47715 54.9852 6.11429 54.9973 5.75143 54.9852C5.29181 54.9731 4.88057 54.7493 4.67495 54.326C4.54795 54.0599 4.554 53.7878 4.56004 53.5035C4.56004 51.9674 4.56609 50.4313 4.56609 48.9013V48.871C4.56609 48.8589 4.56609 48.8408 4.57214 48.8287C4.62052 48.1876 5.10433 47.728 5.75143 47.7038C6.23524 47.6857 6.7251 47.6857 7.20891 47.6917C7.20286 47.6192 7.20286 47.5466 7.19682 47.474C7.14844 46.7423 7.1061 46.0165 7.05772 45.2848C7.00934 44.5288 6.77953 43.8757 6.24129 43.3253C5.32205 42.388 4.39676 41.4627 3.47147 40.5253C2.40708 39.4488 1.30641 38.4328 0.671408 37.0237C0.217834 36.0077 -0.00592828 34.9252 0.000119361 33.8124C0.000119361 33.256 0.00616728 32.7057 0.0122149 32.1493C0.0182626 31.3873 0.0243099 30.6313 0.0303576 29.8693C0.0303576 29.5851 0.02431 29.2948 0.0545483 29.0166C0.199692 27.7043 0.369026 26.398 0.526265 25.0917C0.604884 24.4567 0.677456 23.8217 0.756075 23.1867C0.834694 22.5214 0.955648 21.9046 1.52413 21.4631C2.44942 20.7434 3.87666 21.0216 4.61447 21.8683C5.38857 22.7573 5.38857 23.8822 5.32205 24.9949C5.27971 25.6602 5.23133 26.3254 5.18295 26.9907C5.15271 27.4624 5.04385 27.9946 5.14666 28.4602C5.37648 29.5125 5.63652 30.5588 5.87843 31.605C6.51948 31.5808 7.13634 31.7925 7.60806 32.2521C7.7411 32.3851 7.86811 32.5242 7.99511 32.6633C8.58173 33.2923 9.16835 33.9273 9.75497 34.5563C10.1178 34.9433 10.4686 35.3485 10.8496 35.7174C11.3878 36.2375 11.9563 36.5641 12.6155 36.8846C13.3291 37.2354 14.0367 37.5801 14.7503 37.9308C15.3611 38.2272 15.9719 38.5175 16.5162 38.9287C18.1733 40.1685 19.3042 42.1823 19.2195 44.2809C19.1772 45.4239 19.1288 46.5729 19.0865 47.7159C19.1591 47.7159 19.2377 47.7159 19.3102 47.7159C19.7033 47.7159 20.1267 47.6676 20.5198 47.7401C21.1004 47.8429 21.4632 48.3449 21.4814 48.9194C21.4874 49.1795 21.4814 49.4395 21.4814 49.6996C21.4814 50.6793 21.4814 51.659 21.4753 52.6387C21.4693 53.2798 21.6204 54.193 21.0943 54.6828Z" fill="#2C9B7F"/>
</svg>
